<svg width="60" height="66" viewBox="0 0 60 66" fill="none" xmlns="http://www.w3.org/2000/svg">
<path d="M21.0061 19.9231C21.0745 19.3057 21.2066 18.6993 21.3395 18.0938C21.7975 16.0033 22.5413 14.0173 23.5437 12.1284C24.469 10.3848 25.5881 8.77667 26.9152 7.31175C28.1867 5.90814 29.6104 4.68439 31.1654 3.60659C32.0416 2.99919 32.9621 2.46829 33.9045 1.9732C33.9913 1.92763 34.0879 1.90077 34.1801 1.86523C34.2013 1.87825 34.2143 1.87201 34.2203 1.84868C34.7116 1.55814 35.2465 1.36472 35.775 1.15963C37.0657 0.658299 38.4026 0.329234 39.772 0.138795C40.3244 0.062022 40.8816 0.00613796 41.4407 0.00478155C42.1637 0.00315386 42.8866 -0.0112241 43.6096 0.0194308C43.8253 0.0286543 43.8274 0.0251277 43.8285 0.249749C43.8301 0.575287 43.8291 0.900825 43.8291 1.22636C43.8291 6.94986 43.8293 12.6734 43.8282 18.3969C43.8282 18.7465 43.8944 18.7446 43.4799 18.7262C42.4897 18.682 41.5186 18.7669 40.587 19.1537C39.6231 19.5539 38.8638 20.1968 38.2643 21.0381C37.5652 22.0187 37.1748 23.1275 36.9426 24.2981C36.8235 24.8989 36.7614 25.5066 36.7147 26.1181C36.6466 27.0117 36.6824 27.905 36.6648 28.7983C36.6618 28.9435 36.7174 28.9947 36.8547 28.9782C36.8902 28.9739 36.9268 28.9777 36.9632 28.9777C39.4769 28.9777 41.9906 28.9779 44.5043 28.9774C44.8382 28.9774 44.8065 29.0034 44.8068 28.6679C44.8073 26.6243 44.807 24.581 44.807 22.5374C44.807 22.4428 44.807 22.3478 44.807 22.1905C45.0075 22.4145 45.1629 22.5863 45.316 22.7604C47.4585 25.1979 49.6003 27.6362 51.7432 30.0736C54.1068 32.7623 56.4711 35.4502 58.835 38.1383C58.9663 38.2875 59.0914 38.4432 59.2322 38.5832C59.3407 38.6912 59.3247 38.7647 59.2281 38.8724C58.7278 39.4315 58.2352 39.9974 57.7398 40.5611C55.8061 42.7609 53.8727 44.961 51.9385 47.1606C50.8818 48.3621 49.8247 49.5631 48.7669 50.7637C48.7376 50.7968 48.7013 50.824 48.6682 50.8538L48.6687 50.8533C48.3725 51.2412 48.035 51.5936 47.7146 51.9606C46.7988 53.0091 45.8764 54.0519 44.9565 55.0967C44.9226 55.1352 44.8862 55.1715 44.8068 55.2562C44.8068 55.1032 44.8068 55.0085 44.8068 54.9138C44.8068 52.6171 44.8076 50.3205 44.8059 48.0238C44.8057 47.6589 44.8564 47.6972 44.4687 47.6969C41.9732 47.6958 39.4777 47.6964 36.9822 47.6964C36.9461 47.6964 36.9097 47.6958 36.8737 47.6966C36.6716 47.7012 36.671 47.7012 36.6672 47.9085C36.6659 47.9899 36.667 48.0713 36.667 48.1527C36.667 53.9847 36.6672 59.8167 36.6661 65.6487C36.6661 66.0391 36.7237 65.9987 36.3254 65.9989C31.1895 65.9997 26.0539 65.9995 20.918 65.9995C20.909 65.9995 20.8998 65.9995 20.8908 65.9995C20.526 65.997 20.5705 66.0288 20.5705 65.6823C20.5699 57.3005 20.5699 48.9188 20.5699 40.537C20.5699 40.42 20.5699 40.3031 20.5699 40.1892C20.4636 40.1588 20.3979 40.2188 20.3306 40.2565C20.0472 40.4157 19.7634 40.575 19.4861 40.7448C17.9898 41.6614 16.4521 42.504 14.8556 43.2311C13.413 43.8878 11.9136 44.3843 10.3526 44.6832C9.45985 44.8541 8.56055 44.8889 7.65392 44.8449C6.61139 44.7945 5.5892 44.6298 4.58437 44.3506C4.02472 44.1949 3.49572 43.9635 2.97893 43.7026C2.40625 43.4134 1.83412 43.1231 1.26171 42.8336C0.87758 42.6394 0.541733 42.3841 0.273978 42.0445C0.223791 41.9807 0.178758 41.9124 0.137795 41.8421C-0.171737 41.3101 0.055054 40.8454 0.669236 40.7575C0.906064 40.7236 1.13774 40.7521 1.361 40.8427C1.53761 40.9146 1.71069 40.9954 1.86098 41.1121C2.45345 41.5714 3.12678 41.8798 3.81529 42.1565C4.79624 42.5507 5.78479 42.9264 6.8295 43.122C8.30608 43.3984 9.77887 43.3716 11.2419 43.0317C11.7543 42.9126 12.2323 42.692 12.7049 42.4644C13.8801 41.8983 14.9905 41.2214 16.0707 40.493C17.5394 39.5026 18.9688 38.4546 20.4508 37.4834C20.5363 37.4275 20.5821 37.3687 20.5713 37.2659C20.5656 37.2121 20.5702 37.1573 20.5702 37.1031C20.5702 33.1337 20.5639 29.1643 20.5751 25.1949C20.5775 24.3214 20.6234 23.4468 20.6855 22.5751C20.7392 21.8223 20.8219 21.0706 20.934 20.323C20.9513 20.2074 20.9766 20.0929 20.9983 19.9782C21.0094 19.9619 21.055 19.9497 21.0061 19.9231Z" fill="#6733B5"/>
<path d="M34.2199 1.8487C34.2359 1.86823 34.2538 1.88641 34.2658 1.90811C34.2682 1.91245 34.2465 1.93985 34.2359 1.93958C34.189 1.93876 34.1857 1.89997 34.1795 1.86498C34.1895 1.8506 34.2028 1.84517 34.2199 1.8487Z" fill="#6733B5"/>
<path d="M21.0061 19.9231C21.031 19.9182 21.056 19.9133 21.0812 19.9084C21.0945 19.9809 21.0378 19.97 20.9977 19.979C21.0004 19.9603 21.0034 19.9418 21.0061 19.9231Z" fill="#6733B5"/>
<path d="M30.1399 44.8504C29.8222 44.7809 29.4964 44.8016 29.1755 44.7571C28.4883 44.6619 27.8071 44.5425 27.1408 44.3461C26.9089 44.2777 26.8804 44.2145 26.9846 43.9991C27.0714 43.8198 27.1959 43.6646 27.3153 43.5067C27.6031 43.1261 27.8947 42.7485 28.1329 42.3332C28.2813 42.0744 28.4058 41.8047 28.4905 41.5193C28.8076 40.4469 28.3744 39.1293 27.4935 38.4332C27.203 38.2037 26.8761 38.1147 26.5172 38.0971C25.5129 38.048 24.5474 38.239 23.6036 38.5653C22.6368 38.8996 21.7353 39.3643 20.8862 39.9326C20.8064 39.986 20.7248 40.037 20.6423 40.0902C20.5842 40.0107 20.6065 39.9375 20.6065 39.8697C20.6068 39.1312 20.6133 38.3928 20.6089 37.6544C20.6081 37.5141 20.6385 37.4246 20.7698 37.3511C22.0521 36.6335 23.2528 35.789 24.4633 34.9597C25.498 34.2506 26.5763 33.6199 27.7477 33.1601C28.3773 32.9129 29.0203 32.7111 29.6936 32.621C31.1376 32.4281 32.2719 32.9368 33.086 34.1413C33.3478 34.5284 33.4386 34.9852 33.5282 35.4358C33.7734 36.668 33.6747 37.8893 33.4039 39.1044C33.3966 39.1377 33.379 39.1689 33.415 39.2343C33.9671 38.1421 34.2479 37.0166 34.1483 35.8083C34.0504 34.6225 33.7159 33.52 32.9327 32.5364C33.3703 32.6449 33.7512 32.7415 34.1334 32.834C36.0397 33.2954 37.9623 33.6741 39.8957 34.0024C40.7019 34.1394 41.5063 34.287 42.2925 34.5227C42.9669 34.7251 43.4772 35.1125 43.7951 35.7451C43.8111 35.7771 43.8317 35.8067 43.8518 35.8362C43.8556 35.8417 43.8662 35.8425 43.9012 35.8561C43.9261 35.712 43.9166 35.5753 43.8865 35.4404C43.8054 35.075 43.6828 34.7321 43.3773 34.4828C43.2845 34.4071 43.3054 34.345 43.4226 34.322C43.5371 34.2994 43.6546 34.2799 43.7707 34.2799C44.463 34.281 45.1252 34.1104 45.7847 33.9286C46.3829 33.7637 46.9713 33.564 47.5765 33.424C47.6017 33.418 47.6245 33.4015 47.6546 33.3866C47.609 33.328 47.5597 33.2772 47.5252 33.2178C47.4734 33.128 47.4536 33.0274 47.5198 32.9373C47.5939 32.8364 47.695 32.8644 47.7892 32.9053C48.1684 33.0705 48.5631 33.2037 48.9199 33.4156C49.3065 33.6456 49.6846 33.8901 50.062 34.1353C50.4054 34.3586 50.7025 34.6326 50.9086 34.992C51.0901 35.3086 51.1829 35.6398 51.025 35.9955C50.9708 36.1176 51.0082 36.2055 51.1026 36.2787C51.159 36.3227 51.2225 36.3579 51.2836 36.3956C51.8098 36.7195 51.8842 37.3611 51.448 37.7984C51.1886 38.0583 50.8633 38.1478 50.512 38.1459C49.8715 38.143 49.2348 38.0808 48.612 37.9292C47.8407 37.7415 47.0952 37.8351 46.356 38.086C45.7657 38.2862 45.1998 38.5366 44.6643 38.8562C44.1649 39.154 43.7186 39.5173 43.344 39.9605C42.631 40.8045 41.7472 41.401 40.7388 41.8367C39.4744 42.3831 38.1785 42.8475 36.8975 43.351C36.1856 43.6307 35.4773 43.9196 34.8056 44.2894C34.6174 44.393 34.4199 44.4828 34.2802 44.693C33.9221 44.151 33.465 43.7471 32.9343 43.4462C32.9539 43.3521 33.0089 43.3318 33.057 43.3128C33.3524 43.1961 33.4731 42.9509 33.5211 42.6644C33.5998 42.1964 33.5762 41.7312 33.43 41.2771C33.3722 41.0975 33.3101 40.9184 33.2384 40.744C33.1679 40.572 33.0974 40.5633 32.9634 40.6968C32.9379 40.722 32.9137 40.7497 32.8945 40.7798C32.5136 41.3723 32.0565 41.904 31.5872 42.4262C31.5801 42.4563 31.5614 42.4742 31.531 42.4799C31.2046 42.7306 30.9019 43.0144 30.4944 43.1785C30.5677 43.3019 30.6762 43.3206 30.7711 43.3535C31.2386 43.5143 31.7084 43.669 32.1753 43.8315C33.4254 44.2666 34.4134 45.0758 35.3032 46.0261C35.6493 46.3956 35.935 46.8104 36.2247 47.2225C36.2494 47.2575 36.2828 47.2925 36.2687 47.3649C36.168 47.3541 36.1024 47.2789 36.0286 47.2263C35.3306 46.729 34.5995 46.289 33.806 45.9605C33.6318 45.8883 33.4403 45.8549 33.2734 45.7706C32.9634 45.614 32.6815 45.6889 32.3983 45.8289C31.8093 46.1203 31.2475 46.461 30.674 46.7806C28.5713 47.9528 26.7602 49.4934 25.0851 51.2054C25.0284 51.2632 24.9738 51.3232 24.9169 51.3804C24.9047 51.3926 24.8857 51.3975 24.8697 51.4059C24.8938 51.0744 26.5958 48.7555 27.4365 47.8478C28.4403 46.7637 29.5696 45.8235 30.7988 44.9546C30.6227 44.8355 30.4545 44.8512 30.2883 44.8577C30.2356 44.8987 30.1863 44.9025 30.1399 44.8504Z" fill="white"/>
<path d="M30.1793 44.8232C30.2295 44.807 30.2786 44.8121 30.3271 44.8308C30.2373 45.0126 30.2373 45.0126 29.9747 44.8655C30.0426 44.8132 30.1166 44.8382 30.1793 44.8232Z" fill="#6733B5"/>
<path d="M20.8765 22.0179C20.8691 22.0295 20.8602 22.0621 20.8439 22.0664C20.801 22.0776 20.7875 22.0437 20.7869 22.0076C20.7864 21.9799 20.8029 21.9593 20.8312 21.9587C20.8596 21.9585 20.8748 21.978 20.8765 22.0179Z" fill="#6733B5"/>
<path d="M31.5753 42.4434C31.5826 42.4133 31.6016 42.3956 31.6317 42.3894C31.6618 42.4098 31.6849 42.438 31.6534 42.4681C31.6225 42.4982 31.5948 42.4738 31.5753 42.4434Z" fill="#6733B5"/>
<path d="M48.6684 50.8538C48.635 50.85 48.5987 50.8508 48.5824 50.8139C48.5797 50.8077 48.597 50.7833 48.6016 50.7841C48.6388 50.7917 48.6543 50.8229 48.6678 50.8543L48.6684 50.8538Z" fill="#6733B5"/>
</svg>
