<svg width="145" height="50" viewBox="0 0 145 50" fill="none" xmlns="http://www.w3.org/2000/svg">
<rect width="145" height="50" rx="8" fill="#1F0F38"/>
<path d="M61.376 36L60.6514 33.6211H57.0078L56.2832 36H54L57.5273 25.9648H60.1182L63.6592 36H61.376ZM60.1455 31.8438L59.4209 29.5195C59.3753 29.3646 59.3138 29.1663 59.2363 28.9248C59.1634 28.6787 59.0882 28.4303 59.0107 28.1797C58.9378 27.9245 58.8786 27.7035 58.833 27.5166C58.7874 27.7035 58.7236 27.9359 58.6416 28.2139C58.5641 28.4873 58.4889 28.7471 58.416 28.9932C58.3431 29.2393 58.2907 29.4147 58.2588 29.5195L57.541 31.8438H60.1455ZM69.0117 28.2139C69.873 28.2139 70.568 28.5488 71.0967 29.2188C71.6299 29.8887 71.8965 30.8708 71.8965 32.165C71.8965 33.0309 71.7712 33.7601 71.5205 34.3525C71.2699 34.9404 70.9235 35.3848 70.4814 35.6855C70.0394 35.9863 69.5312 36.1367 68.957 36.1367C68.5879 36.1367 68.2712 36.0911 68.0068 36C67.7425 35.9043 67.5169 35.7835 67.3301 35.6377C67.1432 35.4873 66.9814 35.3278 66.8447 35.1592H66.7354C66.7718 35.3415 66.7992 35.5283 66.8174 35.7197C66.8356 35.9111 66.8447 36.098 66.8447 36.2803V39.3633H64.7598V28.3574H66.4551L66.749 29.3486H66.8447C66.9814 29.1436 67.1478 28.9544 67.3438 28.7812C67.5397 28.6081 67.7744 28.4714 68.0479 28.3711C68.3258 28.2663 68.6471 28.2139 69.0117 28.2139ZM68.3418 29.8818C67.9772 29.8818 67.6878 29.957 67.4736 30.1074C67.2594 30.2578 67.1022 30.4834 67.002 30.7842C66.9062 31.085 66.8538 31.4655 66.8447 31.9258V32.1514C66.8447 32.6436 66.8903 33.0605 66.9814 33.4023C67.0771 33.7441 67.2344 34.0039 67.4531 34.1816C67.6764 34.3594 67.9818 34.4482 68.3691 34.4482C68.6882 34.4482 68.9502 34.3594 69.1553 34.1816C69.3604 34.0039 69.513 33.7441 69.6133 33.4023C69.7181 33.056 69.7705 32.6344 69.7705 32.1377C69.7705 31.3903 69.6543 30.8275 69.4219 30.4492C69.1895 30.071 68.8294 29.8818 68.3418 29.8818ZM77.8711 28.2139C78.7324 28.2139 79.4274 28.5488 79.9561 29.2188C80.4893 29.8887 80.7559 30.8708 80.7559 32.165C80.7559 33.0309 80.6305 33.7601 80.3799 34.3525C80.1292 34.9404 79.7829 35.3848 79.3408 35.6855C78.8988 35.9863 78.3906 36.1367 77.8164 36.1367C77.4473 36.1367 77.1305 36.0911 76.8662 36C76.6019 35.9043 76.3763 35.7835 76.1895 35.6377C76.0026 35.4873 75.8408 35.3278 75.7041 35.1592H75.5947C75.6312 35.3415 75.6585 35.5283 75.6768 35.7197C75.695 35.9111 75.7041 36.098 75.7041 36.2803V39.3633H73.6191V28.3574H75.3145L75.6084 29.3486H75.7041C75.8408 29.1436 76.0072 28.9544 76.2031 28.7812C76.3991 28.6081 76.6338 28.4714 76.9072 28.3711C77.1852 28.2663 77.5065 28.2139 77.8711 28.2139ZM77.2012 29.8818C76.8366 29.8818 76.5472 29.957 76.333 30.1074C76.1188 30.2578 75.9616 30.4834 75.8613 30.7842C75.7656 31.085 75.7132 31.4655 75.7041 31.9258V32.1514C75.7041 32.6436 75.7497 33.0605 75.8408 33.4023C75.9365 33.7441 76.0938 34.0039 76.3125 34.1816C76.5358 34.3594 76.8411 34.4482 77.2285 34.4482C77.5475 34.4482 77.8096 34.3594 78.0146 34.1816C78.2197 34.0039 78.3724 33.7441 78.4727 33.4023C78.5775 33.056 78.6299 32.6344 78.6299 32.1377C78.6299 31.3903 78.5137 30.8275 78.2812 30.4492C78.0488 30.071 77.6888 29.8818 77.2012 29.8818ZM92.1787 33.2246C92.1787 33.8171 92.0352 34.332 91.748 34.7695C91.4609 35.207 91.0417 35.5443 90.4902 35.7812C89.9434 36.0182 89.278 36.1367 88.4941 36.1367C88.1478 36.1367 87.8083 36.1139 87.4756 36.0684C87.1475 36.0228 86.8307 35.9567 86.5254 35.8701C86.2246 35.779 85.9375 35.6673 85.6641 35.5352V33.5664C86.138 33.776 86.6302 33.9652 87.1406 34.1338C87.651 34.3024 88.1569 34.3867 88.6582 34.3867C89.0046 34.3867 89.2826 34.3411 89.4922 34.25C89.7064 34.1589 89.8613 34.0335 89.957 33.874C90.0527 33.7145 90.1006 33.5322 90.1006 33.3271C90.1006 33.0765 90.0163 32.8623 89.8477 32.6846C89.679 32.5068 89.4466 32.3405 89.1504 32.1855C88.8587 32.0306 88.5283 31.8643 88.1592 31.6865C87.9268 31.5771 87.6738 31.445 87.4004 31.29C87.127 31.1305 86.8672 30.9368 86.6211 30.709C86.375 30.4811 86.1722 30.2054 86.0127 29.8818C85.8577 29.5537 85.7803 29.1618 85.7803 28.7061C85.7803 28.109 85.917 27.5986 86.1904 27.1748C86.4639 26.751 86.8535 26.4274 87.3594 26.2041C87.8698 25.9762 88.4714 25.8623 89.1641 25.8623C89.6836 25.8623 90.1781 25.9238 90.6475 26.0469C91.1214 26.1654 91.6159 26.3385 92.1309 26.5664L91.4473 28.2139C90.987 28.027 90.5745 27.8835 90.21 27.7832C89.8454 27.6784 89.474 27.626 89.0957 27.626C88.8314 27.626 88.6058 27.6693 88.4189 27.7559C88.2321 27.8379 88.0908 27.9564 87.9951 28.1113C87.8994 28.2617 87.8516 28.4372 87.8516 28.6377C87.8516 28.8747 87.9199 29.0752 88.0566 29.2393C88.1979 29.3988 88.4076 29.5537 88.6855 29.7041C88.9681 29.8545 89.319 30.0299 89.7383 30.2305C90.2487 30.472 90.6839 30.7249 91.0439 30.9893C91.4085 31.249 91.6888 31.5566 91.8848 31.9121C92.0807 32.263 92.1787 32.7005 92.1787 33.2246ZM97.0459 34.4756C97.2738 34.4756 97.4948 34.4528 97.709 34.4072C97.9277 34.3617 98.1442 34.3047 98.3584 34.2363V35.7881C98.1351 35.8883 97.8571 35.9704 97.5244 36.0342C97.1963 36.1025 96.8363 36.1367 96.4443 36.1367C95.9886 36.1367 95.5785 36.0638 95.2139 35.918C94.8538 35.7676 94.569 35.5101 94.3594 35.1455C94.1543 34.7764 94.0518 34.2637 94.0518 33.6074V29.9229H93.0537V29.041L94.2021 28.3438L94.8037 26.7305H96.1367V28.3574H98.2764V29.9229H96.1367V33.6074C96.1367 33.8991 96.2188 34.1178 96.3828 34.2637C96.5514 34.4049 96.7725 34.4756 97.0459 34.4756ZM106.855 32.165C106.855 32.8031 106.769 33.3682 106.596 33.8604C106.427 34.3525 106.179 34.7695 105.851 35.1113C105.527 35.4486 105.135 35.7038 104.675 35.877C104.219 36.0501 103.704 36.1367 103.13 36.1367C102.592 36.1367 102.098 36.0501 101.646 35.877C101.2 35.7038 100.81 35.4486 100.478 35.1113C100.149 34.7695 99.8942 34.3525 99.7119 33.8604C99.5342 33.3682 99.4453 32.8031 99.4453 32.165C99.4453 31.3174 99.5957 30.5996 99.8965 30.0117C100.197 29.4238 100.626 28.9772 101.182 28.6719C101.738 28.3665 102.401 28.2139 103.171 28.2139C103.886 28.2139 104.52 28.3665 105.071 28.6719C105.627 28.9772 106.062 29.4238 106.377 30.0117C106.696 30.5996 106.855 31.3174 106.855 32.165ZM101.571 32.165C101.571 32.6663 101.626 33.0879 101.735 33.4297C101.845 33.7715 102.016 34.029 102.248 34.2021C102.48 34.3753 102.784 34.4619 103.157 34.4619C103.526 34.4619 103.825 34.3753 104.053 34.2021C104.285 34.029 104.454 33.7715 104.559 33.4297C104.668 33.0879 104.723 32.6663 104.723 32.165C104.723 31.6592 104.668 31.2399 104.559 30.9072C104.454 30.57 104.285 30.3171 104.053 30.1484C103.82 29.9798 103.517 29.8955 103.144 29.8955C102.592 29.8955 102.191 30.0846 101.94 30.4629C101.694 30.8411 101.571 31.4085 101.571 32.165ZM112.844 28.2139C112.949 28.2139 113.069 28.2207 113.206 28.2344C113.347 28.2435 113.461 28.2572 113.548 28.2754L113.391 30.2305C113.322 30.2077 113.224 30.1917 113.097 30.1826C112.974 30.1689 112.867 30.1621 112.775 30.1621C112.507 30.1621 112.244 30.1963 111.989 30.2646C111.739 30.333 111.513 30.4447 111.312 30.5996C111.112 30.75 110.952 30.9505 110.834 31.2012C110.72 31.4473 110.663 31.7503 110.663 32.1104V36H108.578V28.3574H110.157L110.465 29.6426H110.567C110.718 29.3828 110.905 29.1458 111.128 28.9316C111.356 28.7129 111.613 28.5397 111.9 28.4121C112.192 28.2799 112.507 28.2139 112.844 28.2139ZM118.087 28.2139C118.793 28.2139 119.402 28.3506 119.912 28.624C120.423 28.8929 120.817 29.2848 121.095 29.7998C121.373 30.3148 121.512 30.9437 121.512 31.6865V32.6982H116.583C116.606 33.2861 116.781 33.7487 117.109 34.0859C117.442 34.4186 117.902 34.585 118.49 34.585C118.978 34.585 119.424 34.5348 119.83 34.4346C120.236 34.3343 120.653 34.1839 121.081 33.9834V35.5967C120.703 35.7835 120.306 35.9202 119.892 36.0068C119.481 36.0934 118.982 36.1367 118.395 36.1367C117.629 36.1367 116.95 35.9954 116.357 35.7129C115.77 35.4303 115.307 34.9997 114.97 34.4209C114.637 33.8421 114.471 33.113 114.471 32.2334C114.471 31.3402 114.621 30.5973 114.922 30.0049C115.227 29.4079 115.651 28.9613 116.193 28.665C116.736 28.3643 117.367 28.2139 118.087 28.2139ZM118.101 29.6973C117.695 29.6973 117.358 29.8271 117.089 30.0869C116.825 30.3467 116.672 30.7546 116.631 31.3105H119.557C119.552 31.0007 119.495 30.7249 119.386 30.4834C119.281 30.2419 119.121 30.0505 118.907 29.9092C118.698 29.7679 118.429 29.6973 118.101 29.6973Z" fill="white"/>
<path d="M59.3867 16.0898C59.3867 16.7331 59.2669 17.2708 59.0273 17.7031C58.7878 18.1328 58.4401 18.457 57.9844 18.6758C57.5286 18.8919 56.9792 19 56.3359 19H54.75V13.2891H56.5078C57.099 13.2891 57.6094 13.3958 58.0391 13.6094C58.4688 13.8203 58.8008 14.1341 59.0352 14.5508C59.2695 14.9648 59.3867 15.4779 59.3867 16.0898ZM58.4102 16.1172C58.4102 15.6484 58.3359 15.263 58.1875 14.9609C58.0417 14.6589 57.8255 14.4349 57.5391 14.2891C57.2552 14.1406 56.9049 14.0664 56.4883 14.0664H55.6875V18.2148H56.3516C57.0417 18.2148 57.5573 18.0391 57.8984 17.6875C58.2396 17.3359 58.4102 16.8125 58.4102 16.1172ZM64.3516 16.8281C64.3516 17.1875 64.3047 17.5065 64.2109 17.7852C64.1172 18.0638 63.9805 18.2995 63.8008 18.4922C63.6211 18.6823 63.4049 18.8281 63.1523 18.9297C62.8997 19.0286 62.6146 19.0781 62.2969 19.0781C62 19.0781 61.7279 19.0286 61.4805 18.9297C61.2331 18.8281 61.0182 18.6823 60.8359 18.4922C60.6562 18.2995 60.5169 18.0638 60.418 17.7852C60.319 17.5065 60.2695 17.1875 60.2695 16.8281C60.2695 16.3516 60.3516 15.9479 60.5156 15.6172C60.6823 15.2839 60.9193 15.0299 61.2266 14.8555C61.5339 14.681 61.8997 14.5938 62.3242 14.5938C62.7227 14.5938 63.0742 14.681 63.3789 14.8555C63.6836 15.0299 63.9219 15.2839 64.0938 15.6172C64.2656 15.9505 64.3516 16.3542 64.3516 16.8281ZM61.2148 16.8281C61.2148 17.1432 61.2526 17.4128 61.3281 17.6367C61.4062 17.8607 61.526 18.0326 61.6875 18.1523C61.849 18.2695 62.0573 18.3281 62.3125 18.3281C62.5677 18.3281 62.776 18.2695 62.9375 18.1523C63.099 18.0326 63.2174 17.8607 63.293 17.6367C63.3685 17.4128 63.4062 17.1432 63.4062 16.8281C63.4062 16.513 63.3685 16.2461 63.293 16.0273C63.2174 15.806 63.099 15.638 62.9375 15.5234C62.776 15.4062 62.5664 15.3477 62.3086 15.3477C61.9284 15.3477 61.651 15.4753 61.4766 15.7305C61.3021 15.9857 61.2148 16.3516 61.2148 16.8281ZM68.9414 18.9961L68.3945 16.9844C68.3685 16.8854 68.3372 16.7656 68.3008 16.625C68.2643 16.4844 68.2279 16.3398 68.1914 16.1914C68.1549 16.0404 68.1211 15.901 68.0898 15.7734C68.0612 15.6458 68.0391 15.5469 68.0234 15.4766H67.9922C67.9792 15.5469 67.9583 15.6458 67.9297 15.7734C67.901 15.901 67.8685 16.0404 67.832 16.1914C67.7956 16.3424 67.7591 16.4896 67.7227 16.6328C67.6888 16.776 67.6576 16.8984 67.6289 17L67.0547 18.9961H66.0469L64.8359 14.6719H65.7656L66.3281 16.8203C66.3646 16.9661 66.3997 17.1237 66.4336 17.293C66.4701 17.4622 66.5013 17.6237 66.5273 17.7773C66.5534 17.931 66.5729 18.0573 66.5859 18.1562H66.6172C66.6276 18.0859 66.6419 17.9974 66.6602 17.8906C66.6784 17.7812 66.6992 17.668 66.7227 17.5508C66.7461 17.431 66.7695 17.319 66.793 17.2148C66.8164 17.1081 66.8385 17.0221 66.8594 16.957L67.5234 14.6719H68.5273L69.1641 16.957C69.1927 17.056 69.224 17.181 69.2578 17.332C69.2917 17.4805 69.3216 17.6302 69.3477 17.7812C69.3763 17.9297 69.3945 18.0534 69.4023 18.1523H69.4336C69.444 18.0638 69.4622 17.944 69.4883 17.793C69.5169 17.6393 69.5495 17.4766 69.5859 17.3047C69.6224 17.1302 69.6602 16.9688 69.6992 16.8203L70.2734 14.6719H71.1875L69.9688 18.9961H68.9414ZM74.1836 14.5938C74.6706 14.5938 75.0495 14.7201 75.3203 14.9727C75.5938 15.2227 75.7305 15.625 75.7305 16.1797V19H74.8125V16.3516C74.8125 16.0156 74.7435 15.7643 74.6055 15.5977C74.4674 15.4284 74.2539 15.3438 73.9648 15.3438C73.5456 15.3438 73.2539 15.4727 73.0898 15.7305C72.9284 15.9883 72.8477 16.362 72.8477 16.8516V19H71.9297V14.6758H72.6445L72.7734 15.2617H72.8242C72.918 15.1107 73.0339 14.987 73.1719 14.8906C73.3125 14.7917 73.4688 14.7174 73.6406 14.668C73.8151 14.6185 73.9961 14.5938 74.1836 14.5938ZM77.9375 19H77.0156V12.9219H77.9375V19ZM83.0781 16.8281C83.0781 17.1875 83.0312 17.5065 82.9375 17.7852C82.8438 18.0638 82.707 18.2995 82.5273 18.4922C82.3477 18.6823 82.1315 18.8281 81.8789 18.9297C81.6263 19.0286 81.3411 19.0781 81.0234 19.0781C80.7266 19.0781 80.4544 19.0286 80.207 18.9297C79.9596 18.8281 79.7448 18.6823 79.5625 18.4922C79.3828 18.2995 79.2435 18.0638 79.1445 17.7852C79.0456 17.5065 78.9961 17.1875 78.9961 16.8281C78.9961 16.3516 79.0781 15.9479 79.2422 15.6172C79.4089 15.2839 79.6458 15.0299 79.9531 14.8555C80.2604 14.681 80.6263 14.5938 81.0508 14.5938C81.4492 14.5938 81.8008 14.681 82.1055 14.8555C82.4102 15.0299 82.6484 15.2839 82.8203 15.6172C82.9922 15.9505 83.0781 16.3542 83.0781 16.8281ZM79.9414 16.8281C79.9414 17.1432 79.9792 17.4128 80.0547 17.6367C80.1328 17.8607 80.2526 18.0326 80.4141 18.1523C80.5755 18.2695 80.7839 18.3281 81.0391 18.3281C81.2943 18.3281 81.5026 18.2695 81.6641 18.1523C81.8255 18.0326 81.944 17.8607 82.0195 17.6367C82.0951 17.4128 82.1328 17.1432 82.1328 16.8281C82.1328 16.513 82.0951 16.2461 82.0195 16.0273C81.944 15.806 81.8255 15.638 81.6641 15.5234C81.5026 15.4062 81.293 15.3477 81.0352 15.3477C80.6549 15.3477 80.3776 15.4753 80.2031 15.7305C80.0286 15.9857 79.9414 16.3516 79.9414 16.8281ZM85.8281 14.5938C86.375 14.5938 86.7878 14.7148 87.0664 14.957C87.3477 15.1992 87.4883 15.5768 87.4883 16.0898V19H86.8359L86.6602 18.3867H86.6289C86.5065 18.543 86.3802 18.6719 86.25 18.7734C86.1198 18.875 85.9688 18.9505 85.7969 19C85.6276 19.0521 85.4206 19.0781 85.1758 19.0781C84.918 19.0781 84.6875 19.0312 84.4844 18.9375C84.2812 18.8411 84.1211 18.6953 84.0039 18.5C83.8867 18.3047 83.8281 18.0573 83.8281 17.7578C83.8281 17.3125 83.9935 16.9779 84.3242 16.7539C84.6576 16.5299 85.1602 16.4062 85.832 16.3828L86.582 16.3555V16.1289C86.582 15.8294 86.5117 15.6159 86.3711 15.4883C86.2331 15.3607 86.0378 15.2969 85.7852 15.2969C85.569 15.2969 85.3594 15.3281 85.1562 15.3906C84.9531 15.4531 84.7552 15.5299 84.5625 15.6211L84.2656 14.9727C84.4766 14.8607 84.7161 14.7695 84.9844 14.6992C85.2552 14.6289 85.5365 14.5938 85.8281 14.5938ZM86.5781 16.9336L86.0195 16.9531C85.5612 16.9688 85.2396 17.0469 85.0547 17.1875C84.8698 17.3281 84.7773 17.5208 84.7773 17.7656C84.7773 17.9792 84.8411 18.1354 84.9688 18.2344C85.0964 18.3307 85.2643 18.3789 85.4727 18.3789C85.7904 18.3789 86.0534 18.2891 86.2617 18.1094C86.4727 17.9271 86.5781 17.6602 86.5781 17.3086V16.9336ZM90.2266 19.0781C89.7109 19.0781 89.2969 18.8906 88.9844 18.5156C88.6745 18.138 88.5195 17.582 88.5195 16.8477C88.5195 16.1055 88.6771 15.5443 88.9922 15.1641C89.3099 14.7839 89.7279 14.5938 90.2461 14.5938C90.4648 14.5938 90.6562 14.6237 90.8203 14.6836C90.9844 14.7409 91.125 14.819 91.2422 14.918C91.362 15.0169 91.4635 15.1276 91.5469 15.25H91.5898C91.5768 15.1693 91.5612 15.0534 91.543 14.9023C91.5273 14.7487 91.5195 14.6068 91.5195 14.4766V12.9219H92.4414V19H91.7227L91.5586 18.4102H91.5195C91.4414 18.5352 91.3424 18.6484 91.2227 18.75C91.1055 18.849 90.9648 18.9284 90.8008 18.9883C90.6393 19.0482 90.4479 19.0781 90.2266 19.0781ZM90.4844 18.332C90.8776 18.332 91.1549 18.2188 91.3164 17.9922C91.4779 17.7656 91.5612 17.4258 91.5664 16.9727V16.8516C91.5664 16.3672 91.4883 15.9961 91.332 15.7383C91.1758 15.4779 90.8906 15.3477 90.4766 15.3477C90.1458 15.3477 89.8932 15.4818 89.7188 15.75C89.5469 16.0156 89.4609 16.3867 89.4609 16.8633C89.4609 17.3398 89.5469 17.7044 89.7188 17.957C89.8932 18.207 90.1484 18.332 90.4844 18.332ZM99.6641 16.8281C99.6641 17.1875 99.6172 17.5065 99.5234 17.7852C99.4297 18.0638 99.293 18.2995 99.1133 18.4922C98.9336 18.6823 98.7174 18.8281 98.4648 18.9297C98.2122 19.0286 97.9271 19.0781 97.6094 19.0781C97.3125 19.0781 97.0404 19.0286 96.793 18.9297C96.5456 18.8281 96.3307 18.6823 96.1484 18.4922C95.9688 18.2995 95.8294 18.0638 95.7305 17.7852C95.6315 17.5065 95.582 17.1875 95.582 16.8281C95.582 16.3516 95.6641 15.9479 95.8281 15.6172C95.9948 15.2839 96.2318 15.0299 96.5391 14.8555C96.8464 14.681 97.2122 14.5938 97.6367 14.5938C98.0352 14.5938 98.3867 14.681 98.6914 14.8555C98.9961 15.0299 99.2344 15.2839 99.4062 15.6172C99.5781 15.9505 99.6641 16.3542 99.6641 16.8281ZM96.5273 16.8281C96.5273 17.1432 96.5651 17.4128 96.6406 17.6367C96.7188 17.8607 96.8385 18.0326 97 18.1523C97.1615 18.2695 97.3698 18.3281 97.625 18.3281C97.8802 18.3281 98.0885 18.2695 98.25 18.1523C98.4115 18.0326 98.5299 17.8607 98.6055 17.6367C98.681 17.4128 98.7188 17.1432 98.7188 16.8281C98.7188 16.513 98.681 16.2461 98.6055 16.0273C98.5299 15.806 98.4115 15.638 98.25 15.5234C98.0885 15.4062 97.8789 15.3477 97.6211 15.3477C97.2409 15.3477 96.9635 15.4753 96.7891 15.7305C96.6146 15.9857 96.5273 16.3516 96.5273 16.8281ZM102.973 14.5938C103.46 14.5938 103.839 14.7201 104.109 14.9727C104.383 15.2227 104.52 15.625 104.52 16.1797V19H103.602V16.3516C103.602 16.0156 103.533 15.7643 103.395 15.5977C103.257 15.4284 103.043 15.3438 102.754 15.3438C102.335 15.3438 102.043 15.4727 101.879 15.7305C101.717 15.9883 101.637 16.362 101.637 16.8516V19H100.719V14.6758H101.434L101.562 15.2617H101.613C101.707 15.1107 101.823 14.987 101.961 14.8906C102.102 14.7917 102.258 14.7174 102.43 14.668C102.604 14.6185 102.785 14.5938 102.973 14.5938ZM109.492 18.3359C109.612 18.3359 109.73 18.3255 109.848 18.3047C109.965 18.2812 110.072 18.2539 110.168 18.2227V18.918C110.066 18.9622 109.935 19 109.773 19.0312C109.612 19.0625 109.444 19.0781 109.27 19.0781C109.025 19.0781 108.805 19.0378 108.609 18.957C108.414 18.8737 108.259 18.7318 108.145 18.5312C108.03 18.3307 107.973 18.0534 107.973 17.6992V15.375H107.383V14.9648L108.016 14.6406L108.316 13.7148H108.895V14.6758H110.133V15.375H108.895V17.6875C108.895 17.9062 108.949 18.069 109.059 18.1758C109.168 18.2826 109.312 18.3359 109.492 18.3359ZM111.965 12.9219V14.4492C111.965 14.6081 111.96 14.763 111.949 14.9141C111.941 15.0651 111.932 15.1823 111.922 15.2656H111.973C112.064 15.1146 112.176 14.9909 112.309 14.8945C112.441 14.7956 112.59 14.7214 112.754 14.6719C112.921 14.6224 113.098 14.5977 113.285 14.5977C113.616 14.5977 113.897 14.6536 114.129 14.7656C114.361 14.875 114.538 15.0456 114.66 15.2773C114.785 15.5091 114.848 15.8099 114.848 16.1797V19H113.93V16.3516C113.93 16.0156 113.861 15.7643 113.723 15.5977C113.585 15.4284 113.371 15.3438 113.082 15.3438C112.803 15.3438 112.582 15.4023 112.418 15.5195C112.257 15.6341 112.141 15.8047 112.07 16.0312C112 16.2552 111.965 16.5286 111.965 16.8516V19H111.047V12.9219H111.965ZM117.855 14.5938C118.241 14.5938 118.572 14.6732 118.848 14.832C119.124 14.9909 119.336 15.2161 119.484 15.5078C119.633 15.7995 119.707 16.1484 119.707 16.5547V17.0469H116.82C116.831 17.4661 116.943 17.7891 117.156 18.0156C117.372 18.2422 117.674 18.3555 118.062 18.3555C118.339 18.3555 118.586 18.3294 118.805 18.2773C119.026 18.2227 119.254 18.1432 119.488 18.0391V18.7852C119.272 18.8867 119.052 18.9609 118.828 19.0078C118.604 19.0547 118.336 19.0781 118.023 19.0781C117.599 19.0781 117.225 18.9961 116.902 18.832C116.582 18.6654 116.331 18.418 116.148 18.0898C115.969 17.7617 115.879 17.3542 115.879 16.8672C115.879 16.3828 115.961 15.9714 116.125 15.6328C116.289 15.2943 116.52 15.0365 116.816 14.8594C117.113 14.6823 117.46 14.5938 117.855 14.5938ZM117.855 15.2852C117.566 15.2852 117.332 15.3789 117.152 15.5664C116.975 15.7539 116.871 16.0286 116.84 16.3906H118.809C118.806 16.1745 118.77 15.9831 118.699 15.8164C118.632 15.6497 118.527 15.5195 118.387 15.4258C118.249 15.332 118.072 15.2852 117.855 15.2852Z" fill="white"/>
<g clip-path="url(#clip0_1637_1307)">
<path d="M42.0781 37H27.9219C25.208 37 23 34.792 23 32.0781V17.9219C23 15.208 25.208 13 27.9219 13H42.0781C44.792 13 47 15.208 47 17.9219V32.0781C47 34.792 44.792 37 42.0781 37Z" fill="#00C3FF"/>
<path d="M42.0781 13H35V37H42.0781C44.792 37 47 34.792 47 32.0781V17.9219C47 15.208 44.792 13 42.0781 13Z" fill="#00AAF0"/>
<path d="M30.3898 31.4929C30.173 31.8684 29.7783 32.0785 29.3729 32.0786C29.1742 32.0786 28.973 32.0281 28.789 31.9218C28.2294 31.5988 28.0369 30.8807 28.36 30.3211L28.5905 29.9219H31.2968L30.3898 31.4929Z" fill="white"/>
<path d="M28.1797 28.984C27.5335 28.984 27.0078 28.4583 27.0078 27.8122C27.0078 27.166 27.5335 26.6403 28.1797 26.6403H30.4849L33.6468 21.1637L32.7899 19.6794C32.4668 19.1199 32.6592 18.4017 33.2188 18.0786H33.2188C33.7784 17.7556 34.4966 17.948 34.8196 18.5076L35 18.82L35.1804 18.5076C35.5036 17.948 36.2217 17.7556 36.7812 18.0787C37.0522 18.2352 37.2462 18.4879 37.3272 18.7902C37.4082 19.0926 37.3666 19.4084 37.2101 19.6795L33.1912 26.6403H35.7262L37.0794 28.984H28.1797Z" fill="white"/>
<path d="M41.8204 28.9844H40.8683L41.64 30.3211C41.9631 30.8806 41.7707 31.5988 41.2111 31.9219C41.0305 32.0261 40.8301 32.0794 40.627 32.0794C40.5252 32.0794 40.4228 32.066 40.3218 32.039C40.0194 31.9579 39.7667 31.764 39.6102 31.4929L35.5413 24.4453L36.8944 22.1016L39.5151 26.6407H41.8204C42.4665 26.6407 42.9922 27.1664 42.9922 27.8126C42.9922 28.4587 42.4665 28.9844 41.8204 28.9844Z" fill="#F2F2F2"/>
<path d="M35 26.6406V28.9844H37.0794L35.7262 26.6406H35Z" fill="#F2F2F2"/>
<path d="M37.3272 18.7907C37.2461 18.4884 37.0522 18.2356 36.7812 18.0791C36.2217 17.7561 35.5035 17.9484 35.1804 18.5081L35 18.8205V23.508L37.2101 19.68C37.3666 19.4089 37.4082 19.0931 37.3272 18.7907Z" fill="#F2F2F2"/>
</g>
<defs>
<clipPath id="clip0_1637_1307">
<rect width="24" height="24" fill="white" transform="translate(23 13)"/>
</clipPath>
</defs>
</svg>
