<svg width="72" height="72" viewBox="0 0 72 72" fill="none" xmlns="http://www.w3.org/2000/svg">
<rect width="72" height="72" rx="36" fill="#6733B5" fill-opacity="0.05"/>
<path d="M36 36V53.7966L20.8536 45.322V27.5254L36 36Z" fill="#91D0D3"/>
<path d="M51.1464 27.5254V45.322L36 53.7966V36L51.1464 27.5254Z" fill="#15A0A3"/>
<path d="M51.1464 27.5254L36 35.9999L20.8536 27.5254L36 19.0508L51.1464 27.5254Z" fill="#6734B3"/>
<path d="M58.7196 38.1187C58.7196 50.7373 48.5295 61 36 61C23.9923 61 14.1387 51.5678 13.3393 39.678L12.1949 40.839L11 39.6356L14.1219 36.5L17.2437 39.6356L16.0488 40.839L15.0391 39.8136C15.8973 50.7034 24.9684 59.3051 36 59.3051C47.6038 59.3051 57.0367 49.8051 57.0367 38.1187H58.7196Z" fill="#6734B3"/>
<path d="M61 32.3644L57.8781 35.5L54.7563 32.3644L55.9512 31.161L56.9609 32.1864C56.1027 21.2966 47.0316 12.6949 36 12.6949C24.3962 12.6949 14.9633 22.1949 14.9633 33.8814H13.2804C13.2804 21.2627 23.4705 11 36 11C48.0078 11 57.8613 20.4322 58.6607 32.322L59.8051 31.161L61 32.3644Z" fill="#15A0A3"/>
<path d="M24.281 39.1199C24.1987 39.0721 24.1163 39.0585 24.052 39.0908L22.5645 39.8277C22.4272 39.8944 22.4202 40.1393 22.5461 40.3713L25.2115 45.2486L25.3002 45.4107L25.3001 45.4107L25.7578 46.2481C25.8235 46.3692 25.9135 46.4631 26.004 46.5157C26.0869 46.5639 26.1703 46.5775 26.2359 46.5457L27.7234 45.8088C27.8586 45.7409 27.8677 45.4971 27.7418 45.2677L26.5936 43.1667L26.5936 43.1667L26.1349 42.3274L24.528 39.3872C24.462 39.2668 24.3716 39.1726 24.281 39.1199Z" fill="#666C87"/>
<path d="M23.0037 41.2114L22.5093 41.4562C22.372 41.5253 22.3649 41.7678 22.4909 41.9998L22.9495 42.8391C22.9499 42.8389 22.9502 42.8387 22.9506 42.8385L23.8679 44.5195C23.8679 44.5195 23.8679 44.5195 23.8679 44.5195L24.3255 45.3569C24.3926 45.4791 24.4829 45.5739 24.5734 45.6265C24.6557 45.6744 24.7382 45.6874 24.8036 45.6545L25.3001 45.4109L25.3002 45.4109L25.2115 45.2488L23.0037 41.2114Z" fill="#9196A9"/>
<path d="M22.9506 42.8384C22.9502 42.8386 22.9499 42.8388 22.9495 42.839C22.8129 42.9083 22.739 43.0602 22.7363 43.2607C22.7273 43.4581 22.7857 43.6923 22.9138 43.9255C22.9327 43.9609 22.9558 43.9988 22.9768 44.0305C23.0965 44.2125 23.2375 44.3555 23.3828 44.4449C23.3935 44.4516 23.4041 44.4581 23.4147 44.4643C23.5785 44.5595 23.7389 44.582 23.8679 44.5194C23.8679 44.5194 23.8679 44.5194 23.8679 44.5194L22.9506 42.8384Z" fill="#DAE1EA"/>
<path d="M29.64 39.5225L25.6762 41.4883L26.1349 42.3276L26.5935 43.1668L30.5594 41.2022L30.5323 41.1526L29.64 39.5225Z" fill="#DAE1EA"/>
<path d="M30.229 36.172C30.1467 36.1242 30.0642 36.1112 29.9998 36.1446L28.5123 36.8815C28.375 36.9482 28.368 37.1932 28.4939 37.4227L30.5323 41.1526L30.5595 41.2022L31.7056 43.2995C31.7725 43.4212 31.8629 43.5154 31.9534 43.568C32.0363 43.6162 32.1191 43.6295 32.1837 43.5971L33.6712 42.8602C33.8064 42.7923 33.8156 42.5485 33.6896 42.319L30.4758 36.441C30.4099 36.3195 30.3195 36.2247 30.229 36.172Z" fill="#666C87"/>
<path d="M31.6619 37.0634C31.579 37.0152 31.4956 37.0017 31.43 37.0347L30.9355 37.2795L33.2299 41.4778L33.7264 41.2318C33.8617 41.1639 33.8708 40.9226 33.7448 40.6906L33.2852 39.8495C33.2851 39.8495 33.2851 39.8495 33.2851 39.8495L32.8265 39.0102L31.9081 37.3298C31.8424 37.2101 31.7524 37.1161 31.6619 37.0634Z" fill="#9196A9"/>
<path d="M32.821 38.2261C32.6569 38.1307 32.4948 38.1072 32.3678 38.171L32.8265 39.0103L33.2851 39.8495C33.2851 39.8496 33.2851 39.8496 33.2851 39.8496C33.4225 39.7829 33.4946 39.6295 33.4994 39.4296C33.5062 39.2651 33.4645 39.0724 33.3765 38.8772C33.3597 38.8405 33.3429 38.8039 33.3219 38.7649C33.196 38.5353 33.0256 38.3508 32.8529 38.2455C32.8423 38.2387 32.8316 38.2323 32.821 38.2261Z" fill="#DAE1EA"/>
<path d="M43.9821 36.1867C41.8483 37.4275 40.1203 40.4418 40.1272 42.9088C40.1318 44.5597 40.9124 45.5539 42.0677 45.6592L42.0611 43.3324C41.7487 43.2845 41.529 42.4234 41.5274 41.8554C41.5251 41.068 41.9373 39.8321 42.4471 39.5357C42.9569 39.2393 43.3746 39.9926 43.3769 40.78C43.3785 41.348 43.1643 42.4614 42.8532 42.8719L42.8608 45.6016C43.2233 45.5212 43.6085 45.3676 44.0073 45.1357C44.3571 44.9324 44.6959 44.6812 45.018 44.3924L45.0102 41.6176C44.5994 41.8565 44.2653 41.5722 44.2636 40.9798L44.2572 38.6956C44.2568 38.5786 44.324 38.4443 44.4061 38.3966C44.4799 38.3537 44.5433 38.395 44.552 38.4973L44.6238 39.2492L44.7434 40.5226C44.7521 40.6201 44.8113 40.6613 44.8829 40.6197C44.9545 40.578 45.0133 40.4682 45.0214 40.3609L45.2008 38.1323C45.2111 38.014 45.2782 37.8895 45.3562 37.8442C45.4362 37.7976 45.5039 37.8437 45.5126 37.951L45.7018 39.9653C45.7106 40.0628 45.7698 40.104 45.8414 40.0624C45.9151 40.0195 45.9739 39.9097 45.9799 39.8036L46.1002 38.3101L46.1593 37.5628C46.1695 37.4494 46.2325 37.3346 46.3062 37.2918C46.3884 37.244 46.456 37.2999 46.4564 37.4169L46.4628 39.7011C46.4644 40.2764 46.1497 40.9257 45.7559 41.1816L45.7538 41.1852L45.7607 43.627C47.0105 42.1573 47.8651 40.1487 47.8602 38.4124C47.8532 35.9454 46.1139 34.9471 43.9821 36.1867ZM42.0696 46.3347C40.6192 46.348 39.6167 45.2009 39.6111 43.2089C39.6032 40.4128 41.5622 36.9956 43.9805 35.5894C46.3966 34.1845 48.3684 35.3162 48.3763 38.1123C48.3821 40.1867 47.3053 42.603 45.7625 44.2858L45.7647 45.071C45.7656 45.366 45.5998 45.7041 45.3934 45.8241C45.1891 45.9429 45.022 45.7984 45.0212 45.5034L45.0198 45.0063C44.6953 45.2841 44.3569 45.5283 44.009 45.7306C43.6127 45.961 43.2282 46.1233 42.8626 46.2212L42.8641 46.7576C42.8649 47.0526 42.6887 47.3968 42.4696 47.5242C42.2505 47.6516 42.0729 47.5132 42.072 47.2182L42.0696 46.3347ZM43.9763 34.0975C40.8439 35.9189 38.3117 40.3336 38.3219 43.9585C38.3321 47.5835 40.8808 49.0438 44.0132 47.2225C47.1435 45.4023 49.6756 40.9877 49.6654 37.3627C49.6552 33.7378 47.1065 32.2774 43.9763 34.0975Z" fill="#666C87"/>
<path d="M42.8608 45.6016L42.8626 46.2212C43.2282 46.1233 43.6127 45.961 44.009 45.7305C44.3569 45.5283 44.6953 45.2841 45.0198 45.0063L45.018 44.3924C44.6959 44.6812 44.3571 44.9324 44.0073 45.1357C43.6085 45.3676 43.2233 45.5212 42.8608 45.6016ZM43.9805 35.5894C41.5622 36.9955 39.6032 40.4128 39.6111 43.2089C39.6167 45.2008 40.6192 46.348 42.0696 46.3347L42.0677 45.6592C40.9124 45.5539 40.1318 44.5597 40.1272 42.9088C40.1203 40.4418 41.8483 37.4274 43.9822 36.1867C46.1139 34.9471 47.8532 35.9454 47.8602 38.4124C47.8651 40.1486 47.0105 42.1573 45.7607 43.627L45.7625 44.2858C47.3053 42.603 48.3821 40.1867 48.3763 38.1123C48.3684 35.3162 46.3966 34.1845 43.9805 35.5894Z" fill="#BCBECA"/>
<path d="M42.4471 39.5357C41.9373 39.8321 41.5251 41.068 41.5274 41.8554C41.529 42.4234 41.7487 43.2845 42.0611 43.3324L42.0677 45.6592L42.0696 46.3347L42.072 47.2182C42.0729 47.5132 42.2505 47.6516 42.4696 47.5242C42.6887 47.3969 42.8649 47.0526 42.8641 46.7577L42.8626 46.2213L42.8608 45.6016L42.8532 42.8719C43.1643 42.4614 43.3785 41.348 43.3769 40.78C43.3746 39.9926 42.9569 39.2393 42.4471 39.5357Z" fill="white"/>
<path d="M46.3062 37.2917C46.2325 37.3346 46.1695 37.4493 46.1593 37.5627L46.1002 38.3101L45.9799 39.8036C45.9739 39.9096 45.9151 40.0195 45.8414 40.0624C45.7698 40.104 45.7106 40.0627 45.7019 39.9652L45.5126 37.951C45.5039 37.8437 45.4362 37.7976 45.3562 37.8441C45.2783 37.8895 45.2111 38.014 45.2009 38.1322L45.0215 40.3609C45.0133 40.4682 44.9546 40.578 44.8829 40.6197C44.8113 40.6613 44.7521 40.6201 44.7434 40.5225L44.6238 39.2492L44.552 38.4973C44.5433 38.3949 44.4799 38.3537 44.4062 38.3965C44.324 38.4443 44.2569 38.5786 44.2572 38.6956L44.2636 40.9798C44.2653 41.5721 44.5995 41.8564 45.0102 41.6176L45.0181 44.3924L45.0198 45.0063L45.0212 45.5034C45.022 45.7983 45.1891 45.9429 45.3934 45.8241C45.5999 45.7041 45.7656 45.366 45.7648 45.071L45.7626 44.2858L45.7607 43.627L45.7538 41.1852L45.7559 41.1815C46.1498 40.9257 46.4644 40.2763 46.4628 39.701L46.4564 37.4168C46.4561 37.2998 46.3884 37.244 46.3062 37.2917Z" fill="white"/>
<path d="M42.1755 26.2189L41.9374 26.0805C41.4445 25.7939 40.8052 25.6077 40.1183 25.5502L38.6394 25.4277L38.4247 24.5654C38.3258 24.1661 38.0046 23.7937 37.5096 23.5059L37.2736 23.3687C36.0161 22.6375 33.9857 22.6362 32.7342 23.3687C32.1022 23.7386 31.769 24.2433 31.8034 24.7663L32.1371 29.2334L39.7955 29.4134C40.6922 29.4317 41.5562 29.2357 42.1882 28.8658C43.4397 28.1334 43.4331 26.9502 42.1755 26.2189Z" fill="white"/>
<path d="M37.054 25.6279C36.96 25.5732 36.8287 25.5424 36.6957 25.5424L35.0286 25.5424L33.297 24.5356C33.0948 24.418 32.7715 24.418 32.5727 24.5344C32.3739 24.6507 32.3728 24.8406 32.575 24.9582L34.4583 26.0532C34.5552 26.1095 34.6834 26.1402 34.822 26.1402L36.1322 26.1401L35.8538 27.7998C35.8396 27.8843 35.8862 27.9676 35.9832 28.0313L36.0021 28.0424C36.099 28.0987 36.2294 28.1305 36.3658 28.1293L38.0288 28.1293L39.7624 29.1374C39.9625 29.2537 40.2901 29.2537 40.4889 29.1374C40.6877 29.021 40.6846 28.8312 40.4844 28.7148L38.6012 27.6198C38.5043 27.5634 38.374 27.5316 38.2396 27.5316L36.9294 27.5316L37.2057 25.8707C37.222 25.7874 37.1732 25.7029 37.0742 25.6404C37.0677 25.6361 37.0609 25.6319 37.054 25.6279Z" fill="#91D0D3"/>
<path d="M36 11V12.6949C24.3962 12.6949 14.9633 22.1949 14.9633 33.8814H13.2804C13.2804 21.2627 23.4705 11 36 11Z" fill="#6734B3"/>
<path d="M36 59.3051V61C23.9923 61 14.1387 51.5678 13.3393 39.678L12.1949 40.839L11 39.6356L14.1219 36.5L17.2437 39.6356L16.0488 40.839L15.0391 39.8136C15.8973 50.7034 24.9684 59.3051 36 59.3051Z" fill="#15A0A3"/>
</svg>
