<svg width="72" height="72" viewBox="0 0 72 72" fill="none" xmlns="http://www.w3.org/2000/svg">
<rect width="72" height="72" rx="36" fill="#6733B5" fill-opacity="0.05"/>
<path d="M47.2872 21.3337H51.2818V16.6665C51.2818 16.3005 50.9817 16 50.6163 16H21.9928C22.3582 16 22.6583 16.3005 22.6583 16.6665V48.6668C22.6583 49.0328 22.3582 49.3333 21.9928 49.3333H50.6145C50.9799 49.3333 51.28 49.0328 51.28 48.6668V28.0004H47.2855C46.4064 28.0004 45.568 27.6538 44.9361 27.0263C44.3042 26.3863 43.9582 25.5465 43.9582 24.6661C43.96 22.8258 45.4515 21.3337 47.2872 21.3337ZM44.5583 34.0005C44.5583 34.4867 44.2918 34.941 43.8593 35.1744L29.9483 42.7215C29.7488 42.8275 29.5282 42.8823 29.3164 42.8823C29.0834 42.8823 28.8433 42.8222 28.6368 42.695C28.2237 42.4545 27.9837 42.0214 27.9837 41.5476V26.4535C27.9837 25.9797 28.2237 25.5465 28.6368 25.3061C29.0428 25.0657 29.5352 25.0533 29.9483 25.2796L43.8593 32.8267C44.2918 33.06 44.5583 33.5073 44.5583 34.0005Z" fill="#15A0A3"/>
<path d="M51.9473 21.3337H47.2873C45.4498 21.3337 43.9583 22.8276 43.9583 24.668C43.9583 25.5484 44.3042 26.3881 44.9361 27.0281C45.5681 27.6557 46.4065 28.0022 47.2855 28.0022H51.9455C52.678 28.0022 53.2764 27.4029 53.2764 26.6692V22.6685C53.2782 21.933 52.6798 21.3337 51.9473 21.3337ZM47.9528 25.3327C47.5874 25.3327 47.2873 25.0321 47.2873 24.6662C47.2873 24.3002 47.5874 23.9997 47.9528 23.9997C48.3181 23.9997 48.6182 24.3002 48.6182 24.6662C48.62 25.0339 48.3199 25.3327 47.9528 25.3327Z" fill="#6733B5"/>
<path d="M43.8592 32.8266L29.9481 25.2795C29.5351 25.0532 29.0426 25.0656 28.6366 25.306C28.2236 25.5464 27.9835 25.9796 27.9835 26.4534V41.5475C27.9835 42.0213 28.2236 42.4544 28.6366 42.6949C28.8431 42.8221 29.0832 42.8823 29.3162 42.8823C29.5298 42.8823 29.7487 42.8292 29.9481 42.7214L43.8592 35.1743C44.2917 34.9409 44.5582 34.4884 44.5582 34.0004C44.5582 33.5072 44.2917 33.0599 43.8592 32.8266ZM32.6435 36.6664C32.6435 37.0323 32.3434 37.3329 31.978 37.3329C31.6127 37.3329 31.3126 37.0323 31.3126 36.6664V31.3327C31.3126 30.9668 31.6127 30.6662 31.978 30.6662C32.3434 30.6662 32.6435 30.9668 32.6435 31.3327V36.6664ZM35.3053 34.6669C35.3053 35.0329 35.0053 35.3334 34.6399 35.3334C34.2745 35.3334 33.9744 35.0329 33.9744 34.6669V33.3339C33.9744 32.968 34.2745 32.6675 34.6399 32.6675C35.0053 32.6675 35.3053 32.968 35.3053 33.3339V34.6669ZM37.9689 35.3334C37.9689 35.6994 37.6689 35.9999 37.3035 35.9999C36.9381 35.9999 36.638 35.6994 36.638 35.3334V32.6675C36.638 32.3015 36.9381 32.001 37.3035 32.001C37.6689 32.001 37.9689 32.3015 37.9689 32.6675V35.3334Z" fill="#6733B5"/>
<path d="M32.6435 31.3328V36.6664C32.6435 37.0324 32.3435 37.3329 31.9781 37.3329C31.6127 37.3329 31.3126 37.0324 31.3126 36.6664V31.3328C31.3126 30.9668 31.6127 30.6663 31.9781 30.6663C32.3435 30.6663 32.6435 30.9668 32.6435 31.3328Z" fill="#DEFBFD"/>
<path d="M37.969 32.6658V35.3317C37.969 35.6977 37.6689 35.9982 37.3035 35.9982C36.9381 35.9982 36.6381 35.6977 36.6381 35.3317V32.6658C36.6381 32.2998 36.9381 31.9993 37.3035 31.9993C37.6689 31.9993 37.969 32.2998 37.969 32.6658Z" fill="#DEFBFD"/>
<path d="M35.3054 33.334V34.667C35.3054 35.0329 35.0053 35.3334 34.64 35.3334C34.2746 35.3334 33.9745 35.0329 33.9745 34.667V33.334C33.9745 32.968 34.2746 32.6675 34.64 32.6675C35.0071 32.6657 35.3054 32.9663 35.3054 33.334Z" fill="#DEFBFD"/>
<path d="M47.9527 25.3325C48.3202 25.3325 48.6181 25.0341 48.6181 24.666C48.6181 24.2979 48.3202 23.9995 47.9527 23.9995C47.5852 23.9995 47.2872 24.2979 47.2872 24.666C47.2872 25.0341 47.5852 25.3325 47.9527 25.3325Z" fill="#DEFBFD"/>
<path d="M51.2817 48.6668V55.3335C51.2817 55.6995 50.9816 56 50.6163 56H21.9927C20.9284 56 19.9293 55.5863 19.1703 54.8332C18.6443 54.2993 18.2789 53.6399 18.1059 52.9133C18.0335 52.5792 18 52.2875 18 51.9993V20.0007C18 17.7944 19.7899 16 21.9945 16C22.3599 16 22.66 16.3005 22.66 16.6665V48.6668C22.66 49.0328 22.3599 49.3333 21.9945 49.3333C20.5242 49.3333 19.3327 50.5267 19.3327 51.9993C19.3327 52.192 19.3521 52.3935 19.4051 52.6198C19.518 53.0936 19.7651 53.5391 20.1111 53.8927C20.6177 54.3859 21.2832 54.6653 21.9945 54.6653H49.9508V49.3316H50.6163C50.9816 49.3333 51.2817 49.0328 51.2817 48.6668Z" fill="#15A0A3"/>
<path d="M35.7132 52.1601C35.7132 52.5261 35.4131 52.8266 35.0477 52.8266H27.9854C27.62 52.8266 27.3199 52.5261 27.3199 52.1601C27.3199 51.7942 27.62 51.4937 27.9854 51.4937H35.0477C35.4131 51.4937 35.7132 51.7942 35.7132 52.1601Z" fill="#94A2E5"/>
<path d="M38.0891 51.4938H49.9508V49.3335H21.9928C20.5224 49.3335 19.3309 50.5268 19.3309 51.9995C19.3309 52.1922 19.3503 52.3937 19.4033 52.62C19.5163 53.0938 19.7634 53.5393 20.1094 53.8928C20.6159 54.3861 21.2814 54.6654 21.9928 54.6654H49.949V52.8251H38.0873C37.7219 52.8251 37.4219 52.5245 37.4219 52.1586C37.4236 51.7944 37.7219 51.4938 38.0891 51.4938ZM35.046 52.8268H27.9836C27.6183 52.8268 27.3182 52.5263 27.3182 52.1603C27.3182 51.7944 27.6183 51.4938 27.9836 51.4938H35.046C35.4114 51.4938 35.7114 51.7944 35.7114 52.1603C35.7132 52.5263 35.4131 52.8268 35.046 52.8268Z" fill="#DEFBFD"/>
<path d="M49.9508 51.4937V52.8266H38.089C37.7237 52.8266 37.4236 52.5261 37.4236 52.1601C37.4236 51.7942 37.7237 51.4937 38.089 51.4937H49.9508V51.4937Z" fill="#94A2E5"/>
</svg>
