<svg width="275" height="100" viewBox="0 0 275 100" fill="none" xmlns="http://www.w3.org/2000/svg">
<g opacity="0.05">
<path d="M271.644 20.4558C271.319 20.2559 270.984 20.069 270.685 19.8361C270.185 19.4479 269.987 18.9821 270.274 18.3351C271.111 16.4503 270.619 14.6948 269.657 13.017C268.565 11.1106 266.992 9.65998 265.17 8.47674C263.17 7.17705 261.166 5.88168 259.117 4.6625C257.228 3.53821 255.135 2.83373 253.125 1.95816C252.626 1.74107 252.09 1.59298 251.697 2.12781C251.347 2.60513 251.452 3.13852 251.726 3.61441C251.907 3.92926 252.169 4.19955 252.412 4.50866C252.252 4.5863 252.132 4.67544 251.998 4.70707C248.79 5.45036 245.672 6.50708 242.502 7.38121C239.007 8.34448 235.499 9.25023 231.828 9.24304C231.213 9.24161 230.59 9.34656 229.984 9.46589C229.363 9.5881 229.252 9.91589 229.744 10.3185C231.362 11.6411 232.011 13.457 232.442 15.3936C232.6 16.1081 232.652 16.8327 232.52 17.5961C232.334 17.5243 232.278 17.5199 232.258 17.4912C232.152 17.333 232.042 17.1763 231.958 17.0081C230.273 13.6554 227.568 11.6009 223.994 10.5298C219.828 9.28043 215.565 8.49687 211.292 7.77227C201.045 6.03264 190.855 4.02415 180.754 1.58004C178.728 1.08691 176.708 0.575084 174.39 0C178.541 5.21314 180.315 11.056 180.833 17.3402C181.36 23.7438 179.874 29.7089 176.947 35.4971C176.755 35.1506 176.847 34.9853 176.888 34.8084C178.322 28.3689 178.844 21.8963 177.546 15.3663C177.07 12.9768 176.589 10.5571 175.203 8.5055C170.888 2.12206 164.877 -0.575084 157.224 0.447128C153.656 0.924448 150.248 1.99411 146.911 3.30386C140.705 5.74078 134.99 9.08346 129.505 12.8416C123.196 17.1648 116.936 21.5628 110.267 25.3238L110.265 25.3224C110.264 25.3238 110.258 25.3267 110.257 25.3296C110.148 25.3914 110.04 25.4532 109.93 25.5151C109.876 25.5452 109.827 25.5769 109.778 25.6085C109.281 25.8702 108.566 26.2181 108.396 26.3302C100.542 31.4772 92.954 36.9219 85.1702 42.1695C79.4452 46.0298 73.5607 49.6168 67.3325 52.6174C64.828 53.8236 62.2948 54.9925 59.5789 55.6236C51.8239 57.4251 44.02 57.5674 36.1946 56.1024C30.6579 55.0658 25.4189 53.076 20.2202 50.9855C16.5712 49.5191 13.0028 47.8844 9.86289 45.4504C9.06639 44.8336 8.14914 44.4037 7.21319 44.0227C6.02995 43.5411 4.80214 43.3916 3.54702 43.5713C0.290605 44.0371 -0.909884 46.4999 0.730545 49.3192C0.946202 49.6916 1.1863 50.0539 1.45228 50.3918C2.8713 52.1918 4.65118 53.5432 6.68698 54.5741C9.72055 56.1081 12.7527 57.6465 15.7877 59.1791C18.528 60.5621 21.3301 61.7885 24.2975 62.6138C29.6228 64.0946 35.0401 64.9659 40.5652 65.2333C45.37 65.4662 50.1361 65.2822 54.8676 64.3764C63.1387 62.792 71.0864 60.161 78.7321 56.6803C87.1945 52.8273 95.342 48.3617 103.272 43.5037C104.742 42.6037 106.246 41.7583 107.748 40.9158C107.967 40.7922 108.624 40.4241 109.252 40.0216C109.253 40.0244 109.256 40.0273 109.258 40.0302C109.696 39.747 110.127 39.4781 110.55 39.1949C115.05 36.1814 119.828 33.7201 124.952 31.9488C129.953 30.2192 135.07 29.2071 140.393 29.4673C142.293 29.5608 144.027 30.0323 145.567 31.2487C150.237 34.9378 152.533 41.9208 150.851 47.604C150.403 49.1165 149.744 50.5456 148.956 51.9172C147.693 54.1183 146.148 56.1196 144.622 58.1367C143.99 58.9735 143.331 59.7958 142.87 60.7462C142.316 61.8891 142.467 62.2227 143.698 62.585C147.228 63.6273 150.838 64.2599 154.481 64.7631C156.023 64.9773 157.588 64.9083 159.12 65.1671C158.985 65.1901 158.849 65.2361 158.718 65.3382C160.038 66.0772 160.105 66.1132 160.516 65.2908C161.35 65.2548 162.196 65.2131 163.078 65.8098C156.563 70.4148 150.579 75.3979 145.259 81.143C140.804 85.955 131.784 98.2431 131.656 100C131.741 99.9569 131.841 99.9296 131.906 99.8649C132.209 99.5615 132.498 99.2438 132.797 98.9375C141.677 89.8641 151.275 81.6994 162.417 75.487C165.456 73.7934 168.434 71.9876 171.555 70.4435C173.056 69.7017 174.55 69.3034 176.193 70.1344C177.077 70.5816 178.094 70.7598 179.015 71.1408C183.222 72.8819 187.095 75.2139 190.795 77.8492C191.184 78.1267 191.532 78.5249 192.065 78.5839C192.14 78.2 191.963 78.0145 191.833 77.8291C190.297 75.6452 188.783 73.4469 186.949 71.4887C182.233 66.4539 176.997 62.1638 170.372 59.8577C167.898 58.9965 165.407 58.177 162.93 57.3244C162.427 57.1505 161.852 57.0527 161.464 56.3971C163.623 55.5273 165.229 54.0234 166.957 52.695C167.077 52.6734 167.161 52.6145 167.213 52.5225C167.315 52.672 167.455 52.7812 167.611 52.6317C167.777 52.4721 167.655 52.3226 167.496 52.2148C167.463 52.222 167.433 52.232 167.404 52.245C169.838 49.5306 172.205 46.763 174.183 43.6863C174.285 43.5267 174.413 43.3815 174.548 43.2463C175.259 42.539 175.632 42.5836 176.006 43.4965C176.386 44.421 176.714 45.3699 177.021 46.3216C177.798 48.7298 177.923 51.194 177.504 53.6741C177.248 55.1923 176.609 56.4934 175.044 57.1102C174.79 57.2108 174.5 57.3201 174.395 57.8176C177.207 59.412 179.629 61.5542 181.527 64.4253C182.267 63.311 183.316 62.8366 184.312 62.286C187.872 60.3249 191.626 58.7952 195.398 57.3129C202.187 54.6445 209.055 52.1832 215.756 49.2876C221.099 46.9786 225.784 43.8171 229.562 39.3444C231.548 36.9952 233.913 35.0701 236.56 33.4915C239.398 31.7979 242.398 30.4708 245.525 29.4098C249.443 28.0799 253.394 27.5839 257.481 28.5788C260.782 29.3825 264.157 29.7117 267.551 29.7276C269.413 29.7362 271.137 29.2632 272.511 27.8858C274.827 25.5726 274.433 22.1724 271.644 20.4558Z" fill="url(#paint0_linear_1637_1230)"/>
</g>
<defs>
<linearGradient id="paint0_linear_1637_1230" x1="137.011" y1="0" x2="137.011" y2="100" gradientUnits="userSpaceOnUse">
<stop stop-color="#8E5ED6"/>
<stop offset="1" stop-color="#6733B5"/>
</linearGradient>
</defs>
</svg>
