<svg width="145" height="50" viewBox="0 0 145 50" fill="none" xmlns="http://www.w3.org/2000/svg">
<rect width="145" height="50" rx="8" fill="#1F0F38"/>
<path d="M52.0518 30.3877H56.0166V35.5693C55.4925 35.7425 54.9479 35.8815 54.3828 35.9863C53.8177 36.0866 53.1774 36.1367 52.4619 36.1367C51.4684 36.1367 50.6253 35.9408 49.9326 35.5488C49.2399 35.1569 48.7135 34.5781 48.3535 33.8125C47.9935 33.0469 47.8135 32.1058 47.8135 30.9893C47.8135 29.9411 48.014 29.0342 48.415 28.2686C48.8206 27.5029 49.4108 26.9105 50.1855 26.4912C50.9648 26.0719 51.915 25.8623 53.0361 25.8623C53.5648 25.8623 54.0866 25.9193 54.6016 26.0332C55.1165 26.1471 55.5837 26.2952 56.0029 26.4775L55.2988 28.1729C54.9935 28.0179 54.6449 27.888 54.2529 27.7832C53.861 27.6784 53.4508 27.626 53.0225 27.626C52.4072 27.626 51.8717 27.7673 51.416 28.0498C50.9648 28.3324 50.6139 28.7288 50.3633 29.2393C50.1172 29.7451 49.9941 30.3421 49.9941 31.0303C49.9941 31.682 50.083 32.2607 50.2607 32.7666C50.4385 33.2679 50.7188 33.6621 51.1016 33.9492C51.4844 34.2318 51.9834 34.373 52.5986 34.373C52.8994 34.373 53.1523 34.3594 53.3574 34.332C53.5671 34.3001 53.763 34.2682 53.9453 34.2363V32.1514H52.0518V30.3877ZM65.1836 32.165C65.1836 32.8031 65.097 33.3682 64.9238 33.8604C64.7552 34.3525 64.5068 34.7695 64.1787 35.1113C63.8551 35.4486 63.4632 35.7038 63.0029 35.877C62.5472 36.0501 62.0322 36.1367 61.458 36.1367C60.9202 36.1367 60.4258 36.0501 59.9746 35.877C59.528 35.7038 59.1383 35.4486 58.8057 35.1113C58.4775 34.7695 58.2223 34.3525 58.04 33.8604C57.8623 33.3682 57.7734 32.8031 57.7734 32.165C57.7734 31.3174 57.9238 30.5996 58.2246 30.0117C58.5254 29.4238 58.9538 28.9772 59.5098 28.6719C60.0658 28.3665 60.7288 28.2139 61.499 28.2139C62.2145 28.2139 62.848 28.3665 63.3994 28.6719C63.9554 28.9772 64.3906 29.4238 64.7051 30.0117C65.0241 30.5996 65.1836 31.3174 65.1836 32.165ZM59.8994 32.165C59.8994 32.6663 59.9541 33.0879 60.0635 33.4297C60.1729 33.7715 60.3438 34.029 60.5762 34.2021C60.8086 34.3753 61.1117 34.4619 61.4854 34.4619C61.8545 34.4619 62.153 34.3753 62.3809 34.2021C62.6133 34.029 62.7819 33.7715 62.8867 33.4297C62.9961 33.0879 63.0508 32.6663 63.0508 32.165C63.0508 31.6592 62.9961 31.2399 62.8867 30.9072C62.7819 30.57 62.6133 30.3171 62.3809 30.1484C62.1484 29.9798 61.8454 29.8955 61.4717 29.8955C60.9202 29.8955 60.5192 30.0846 60.2686 30.4629C60.0225 30.8411 59.8994 31.4085 59.8994 32.165ZM73.8516 32.165C73.8516 32.8031 73.765 33.3682 73.5918 33.8604C73.4232 34.3525 73.1748 34.7695 72.8467 35.1113C72.5231 35.4486 72.1312 35.7038 71.6709 35.877C71.2152 36.0501 70.7002 36.1367 70.126 36.1367C69.5882 36.1367 69.0938 36.0501 68.6426 35.877C68.196 35.7038 67.8063 35.4486 67.4736 35.1113C67.1455 34.7695 66.8903 34.3525 66.708 33.8604C66.5303 33.3682 66.4414 32.8031 66.4414 32.165C66.4414 31.3174 66.5918 30.5996 66.8926 30.0117C67.1934 29.4238 67.6217 28.9772 68.1777 28.6719C68.7337 28.3665 69.3968 28.2139 70.167 28.2139C70.8825 28.2139 71.516 28.3665 72.0674 28.6719C72.6234 28.9772 73.0586 29.4238 73.373 30.0117C73.6921 30.5996 73.8516 31.3174 73.8516 32.165ZM68.5674 32.165C68.5674 32.6663 68.6221 33.0879 68.7314 33.4297C68.8408 33.7715 69.0117 34.029 69.2441 34.2021C69.4766 34.3753 69.7796 34.4619 70.1533 34.4619C70.5225 34.4619 70.821 34.3753 71.0488 34.2021C71.2812 34.029 71.4499 33.7715 71.5547 33.4297C71.6641 33.0879 71.7188 32.6663 71.7188 32.165C71.7188 31.6592 71.6641 31.2399 71.5547 30.9072C71.4499 30.57 71.2812 30.3171 71.0488 30.1484C70.8164 29.9798 70.5133 29.8955 70.1396 29.8955C69.5882 29.8955 69.1872 30.0846 68.9365 30.4629C68.6904 30.8411 68.5674 31.4085 68.5674 32.165ZM77.8096 39.3633C76.7432 39.3633 75.9274 39.1764 75.3623 38.8027C74.8018 38.4336 74.5215 37.9141 74.5215 37.2441C74.5215 36.7839 74.665 36.3988 74.9521 36.0889C75.2393 35.779 75.6608 35.5579 76.2168 35.4258C76.0026 35.3346 75.8158 35.1865 75.6562 34.9814C75.4967 34.7718 75.417 34.5508 75.417 34.3184C75.417 34.0267 75.5013 33.7852 75.6699 33.5938C75.8385 33.3978 76.0824 33.2064 76.4014 33.0195C76.0003 32.8464 75.6813 32.5684 75.4443 32.1855C75.2119 31.8027 75.0957 31.3516 75.0957 30.832C75.0957 30.276 75.2165 29.8044 75.458 29.417C75.7041 29.0251 76.0596 28.7266 76.5244 28.5215C76.9938 28.3164 77.5635 28.2139 78.2334 28.2139C78.3747 28.2139 78.5387 28.223 78.7256 28.2412C78.9124 28.2594 79.0833 28.2799 79.2383 28.3027C79.3978 28.3255 79.5049 28.3438 79.5596 28.3574H82.2256V29.417L81.0293 29.7246C81.1387 29.8932 81.2207 30.0732 81.2754 30.2646C81.3301 30.4561 81.3574 30.6589 81.3574 30.873C81.3574 31.6934 81.0703 32.3337 80.4961 32.7939C79.9264 33.2497 79.1335 33.4775 78.1172 33.4775C77.8757 33.4639 77.6478 33.4456 77.4336 33.4229C77.3288 33.5049 77.249 33.5915 77.1943 33.6826C77.1396 33.7738 77.1123 33.8695 77.1123 33.9697C77.1123 34.07 77.1533 34.1543 77.2354 34.2227C77.3219 34.2865 77.4495 34.3366 77.6182 34.373C77.7913 34.4049 78.0055 34.4209 78.2607 34.4209H79.5596C80.3981 34.4209 81.0361 34.6009 81.4736 34.9609C81.9157 35.321 82.1367 35.8496 82.1367 36.5469C82.1367 37.4401 81.763 38.1328 81.0156 38.625C80.2728 39.1172 79.2041 39.3633 77.8096 39.3633ZM77.8984 38.0029C78.3952 38.0029 78.8213 37.9551 79.1768 37.8594C79.5368 37.7682 79.8125 37.6361 80.0039 37.4629C80.1953 37.2943 80.291 37.0915 80.291 36.8545C80.291 36.6631 80.234 36.5104 80.1201 36.3965C80.0107 36.2871 79.8421 36.2096 79.6143 36.1641C79.391 36.1185 79.1038 36.0957 78.7529 36.0957H77.6729C77.4176 36.0957 77.1875 36.1367 76.9824 36.2188C76.7819 36.3008 76.6224 36.4147 76.5039 36.5605C76.3854 36.7109 76.3262 36.8841 76.3262 37.0801C76.3262 37.3672 76.4629 37.5928 76.7363 37.7568C77.0143 37.9209 77.4017 38.0029 77.8984 38.0029ZM78.2334 32.2061C78.6253 32.2061 78.9124 32.0853 79.0947 31.8438C79.277 31.6022 79.3682 31.2741 79.3682 30.8594C79.3682 30.3991 79.2725 30.055 79.0811 29.8271C78.8942 29.5947 78.6117 29.4785 78.2334 29.4785C77.8506 29.4785 77.5635 29.5947 77.3721 29.8271C77.1807 30.055 77.085 30.3991 77.085 30.8594C77.085 31.2741 77.1784 31.6022 77.3652 31.8438C77.5566 32.0853 77.846 32.2061 78.2334 32.2061ZM85.5752 36H83.4902V25.3633H85.5752V36ZM90.9209 28.2139C91.6273 28.2139 92.2357 28.3506 92.7461 28.624C93.2565 28.8929 93.6507 29.2848 93.9287 29.7998C94.2067 30.3148 94.3457 30.9437 94.3457 31.6865V32.6982H89.417C89.4398 33.2861 89.6152 33.7487 89.9434 34.0859C90.276 34.4186 90.7363 34.585 91.3242 34.585C91.8118 34.585 92.2585 34.5348 92.6641 34.4346C93.0697 34.3343 93.4867 34.1839 93.915 33.9834V35.5967C93.5368 35.7835 93.1403 35.9202 92.7256 36.0068C92.3154 36.0934 91.8164 36.1367 91.2285 36.1367C90.4629 36.1367 89.7839 35.9954 89.1914 35.7129C88.6035 35.4303 88.141 34.9997 87.8037 34.4209C87.471 33.8421 87.3047 33.113 87.3047 32.2334C87.3047 31.3402 87.4551 30.5973 87.7559 30.0049C88.0612 29.4079 88.485 28.9613 89.0273 28.665C89.5697 28.3643 90.2008 28.2139 90.9209 28.2139ZM90.9346 29.6973C90.529 29.6973 90.1917 29.8271 89.9229 30.0869C89.6585 30.3467 89.5059 30.7546 89.4648 31.3105H92.3906C92.3861 31.0007 92.3291 30.7249 92.2197 30.4834C92.1149 30.2419 91.9554 30.0505 91.7412 29.9092C91.5316 29.7679 91.2627 29.6973 90.9346 29.6973ZM103.034 26.0059C104.324 26.0059 105.265 26.2839 105.857 26.8398C106.45 27.3913 106.746 28.1523 106.746 29.123C106.746 29.5605 106.68 29.9798 106.548 30.3809C106.416 30.7773 106.199 31.1305 105.898 31.4404C105.602 31.7503 105.206 31.9964 104.709 32.1787C104.212 32.3564 103.599 32.4453 102.87 32.4453H101.961V36H99.8418V26.0059H103.034ZM102.925 27.7422H101.961V30.709H102.658C103.055 30.709 103.399 30.6566 103.69 30.5518C103.982 30.4469 104.208 30.2829 104.367 30.0596C104.527 29.8363 104.606 29.5492 104.606 29.1982C104.606 28.7061 104.47 28.3415 104.196 28.1045C103.923 27.863 103.499 27.7422 102.925 27.7422ZM110.554 36H108.469V25.3633H110.554V36ZM115.879 28.2002C116.904 28.2002 117.69 28.4235 118.237 28.8701C118.784 29.3167 119.058 29.9958 119.058 30.9072V36H117.602L117.198 34.9609H117.144C116.925 35.2344 116.701 35.4577 116.474 35.6309C116.246 35.804 115.984 35.9316 115.688 36.0137C115.391 36.0957 115.031 36.1367 114.607 36.1367C114.156 36.1367 113.751 36.0501 113.391 35.877C113.035 35.7038 112.755 35.4395 112.55 35.084C112.345 34.724 112.242 34.2682 112.242 33.7168C112.242 32.9056 112.527 32.3086 113.097 31.9258C113.666 31.5384 114.521 31.3242 115.66 31.2832L116.986 31.2422V30.9072C116.986 30.5062 116.882 30.2122 116.672 30.0254C116.462 29.8385 116.171 29.7451 115.797 29.7451C115.428 29.7451 115.065 29.7975 114.71 29.9023C114.354 30.0072 113.999 30.1393 113.644 30.2988L112.953 28.8906C113.359 28.6764 113.812 28.5078 114.313 28.3848C114.819 28.2617 115.341 28.2002 115.879 28.2002ZM116.986 32.459L116.18 32.4863C115.505 32.5046 115.036 32.6253 114.771 32.8486C114.512 33.0719 114.382 33.3659 114.382 33.7305C114.382 34.0495 114.475 34.2773 114.662 34.4141C114.849 34.5462 115.093 34.6123 115.394 34.6123C115.84 34.6123 116.216 34.4801 116.521 34.2158C116.831 33.9515 116.986 33.5755 116.986 33.0879V32.459ZM120.117 28.3574H122.4L123.843 32.6572C123.888 32.7939 123.927 32.9329 123.959 33.0742C123.991 33.2155 124.018 33.3613 124.041 33.5117C124.064 33.6621 124.082 33.8193 124.096 33.9834H124.137C124.164 33.7373 124.201 33.5072 124.246 33.293C124.296 33.0788 124.358 32.8669 124.431 32.6572L125.846 28.3574H128.081L124.848 36.9775C124.652 37.5062 124.396 37.946 124.082 38.2969C123.768 38.6523 123.405 38.9189 122.995 39.0967C122.59 39.2744 122.143 39.3633 121.655 39.3633C121.418 39.3633 121.213 39.3496 121.04 39.3223C120.867 39.2995 120.719 39.2744 120.596 39.2471V37.5928C120.691 37.6156 120.812 37.6361 120.958 37.6543C121.104 37.6725 121.257 37.6816 121.416 37.6816C121.708 37.6816 121.958 37.6201 122.168 37.4971C122.378 37.374 122.553 37.2077 122.694 36.998C122.836 36.793 122.947 36.5674 123.029 36.3213L123.152 35.9453L120.117 28.3574Z" fill="white"/>
<path d="M50.0547 15.8984H52.1875V18.7656C51.888 18.8646 51.5781 18.9414 51.2578 18.9961C50.9375 19.0508 50.5781 19.0781 50.1797 19.0781C49.599 19.0781 49.1068 18.9635 48.7031 18.7344C48.3021 18.5026 47.9974 18.168 47.7891 17.7305C47.5807 17.2904 47.4766 16.7604 47.4766 16.1406C47.4766 15.5443 47.5924 15.0273 47.8242 14.5898C48.056 14.1497 48.3932 13.8099 48.8359 13.5703C49.2786 13.3281 49.8151 13.207 50.4453 13.207C50.7552 13.207 51.0547 13.2383 51.3438 13.3008C51.6354 13.3607 51.9023 13.444 52.1445 13.5508L51.8164 14.3242C51.6237 14.2331 51.4076 14.1562 51.168 14.0938C50.9284 14.0312 50.6797 14 50.4219 14C50.013 14 49.6602 14.0885 49.3633 14.2656C49.069 14.4427 48.8424 14.6927 48.6836 15.0156C48.5247 15.3359 48.4453 15.7148 48.4453 16.1523C48.4453 16.5768 48.5091 16.9492 48.6367 17.2695C48.7643 17.5898 48.9635 17.8398 49.2344 18.0195C49.5078 18.1966 49.8607 18.2852 50.293 18.2852C50.5091 18.2852 50.6927 18.2734 50.8438 18.25C50.9948 18.2266 51.1341 18.2005 51.2617 18.1719V16.6992H50.0547V15.8984ZM55.1836 14.5938C55.569 14.5938 55.8997 14.6732 56.1758 14.832C56.4518 14.9909 56.6641 15.2161 56.8125 15.5078C56.9609 15.7995 57.0352 16.1484 57.0352 16.5547V17.0469H54.1484C54.1589 17.4661 54.2708 17.7891 54.4844 18.0156C54.7005 18.2422 55.0026 18.3555 55.3906 18.3555C55.6667 18.3555 55.9141 18.3294 56.1328 18.2773C56.3542 18.2227 56.582 18.1432 56.8164 18.0391V18.7852C56.6003 18.8867 56.3802 18.9609 56.1562 19.0078C55.9323 19.0547 55.6641 19.0781 55.3516 19.0781C54.9271 19.0781 54.5534 18.9961 54.2305 18.832C53.9102 18.6654 53.6589 18.418 53.4766 18.0898C53.2969 17.7617 53.207 17.3542 53.207 16.8672C53.207 16.3828 53.2891 15.9714 53.4531 15.6328C53.6172 15.2943 53.8477 15.0365 54.1445 14.8594C54.4414 14.6823 54.7878 14.5938 55.1836 14.5938ZM55.1836 15.2852C54.8945 15.2852 54.6602 15.3789 54.4805 15.5664C54.3034 15.7539 54.1992 16.0286 54.168 16.3906H56.1367C56.1341 16.1745 56.0977 15.9831 56.0273 15.8164C55.9596 15.6497 55.8555 15.5195 55.7148 15.4258C55.5768 15.332 55.3997 15.2852 55.1836 15.2852ZM59.6797 18.3359C59.7995 18.3359 59.918 18.3255 60.0352 18.3047C60.1523 18.2812 60.2591 18.2539 60.3555 18.2227V18.918C60.2539 18.9622 60.1224 19 59.9609 19.0312C59.7995 19.0625 59.6315 19.0781 59.457 19.0781C59.2122 19.0781 58.9922 19.0378 58.7969 18.957C58.6016 18.8737 58.4466 18.7318 58.332 18.5312C58.2174 18.3307 58.1602 18.0534 58.1602 17.6992V15.375H57.5703V14.9648L58.2031 14.6406L58.5039 13.7148H59.082V14.6758H60.3203V15.375H59.082V17.6875C59.082 17.9062 59.1367 18.069 59.2461 18.1758C59.3555 18.2826 59.5 18.3359 59.6797 18.3359ZM64.2305 14.6758V19H63.3125V14.6758H64.2305ZM63.7773 13.0195C63.918 13.0195 64.0391 13.0573 64.1406 13.1328C64.2448 13.2083 64.2969 13.3385 64.2969 13.5234C64.2969 13.7057 64.2448 13.8359 64.1406 13.9141C64.0391 13.9896 63.918 14.0273 63.7773 14.0273C63.6315 14.0273 63.5078 13.9896 63.4062 13.9141C63.3073 13.8359 63.2578 13.7057 63.2578 13.5234C63.2578 13.3385 63.3073 13.2083 63.4062 13.1328C63.5078 13.0573 63.6315 13.0195 63.7773 13.0195ZM67.1562 18.3359C67.276 18.3359 67.3945 18.3255 67.5117 18.3047C67.6289 18.2812 67.7357 18.2539 67.832 18.2227V18.918C67.7305 18.9622 67.599 19 67.4375 19.0312C67.276 19.0625 67.1081 19.0781 66.9336 19.0781C66.6888 19.0781 66.4688 19.0378 66.2734 18.957C66.0781 18.8737 65.9232 18.7318 65.8086 18.5312C65.694 18.3307 65.6367 18.0534 65.6367 17.6992V15.375H65.0469V14.9648L65.6797 14.6406L65.9805 13.7148H66.5586V14.6758H67.7969V15.375H66.5586V17.6875C66.5586 17.9062 66.6133 18.069 66.7227 18.1758C66.832 18.2826 66.9766 18.3359 67.1562 18.3359ZM74.6172 16.8281C74.6172 17.1875 74.5703 17.5065 74.4766 17.7852C74.3828 18.0638 74.2461 18.2995 74.0664 18.4922C73.8867 18.6823 73.6706 18.8281 73.418 18.9297C73.1654 19.0286 72.8802 19.0781 72.5625 19.0781C72.2656 19.0781 71.9935 19.0286 71.7461 18.9297C71.4987 18.8281 71.2839 18.6823 71.1016 18.4922C70.9219 18.2995 70.7826 18.0638 70.6836 17.7852C70.5846 17.5065 70.5352 17.1875 70.5352 16.8281C70.5352 16.3516 70.6172 15.9479 70.7812 15.6172C70.9479 15.2839 71.1849 15.0299 71.4922 14.8555C71.7995 14.681 72.1654 14.5938 72.5898 14.5938C72.9883 14.5938 73.3398 14.681 73.6445 14.8555C73.9492 15.0299 74.1875 15.2839 74.3594 15.6172C74.5312 15.9505 74.6172 16.3542 74.6172 16.8281ZM71.4805 16.8281C71.4805 17.1432 71.5182 17.4128 71.5938 17.6367C71.6719 17.8607 71.7917 18.0326 71.9531 18.1523C72.1146 18.2695 72.3229 18.3281 72.5781 18.3281C72.8333 18.3281 73.0417 18.2695 73.2031 18.1523C73.3646 18.0326 73.4831 17.8607 73.5586 17.6367C73.6341 17.4128 73.6719 17.1432 73.6719 16.8281C73.6719 16.513 73.6341 16.2461 73.5586 16.0273C73.4831 15.806 73.3646 15.638 73.2031 15.5234C73.0417 15.4062 72.832 15.3477 72.5742 15.3477C72.194 15.3477 71.9167 15.4753 71.7422 15.7305C71.5677 15.9857 71.4805 16.3516 71.4805 16.8281ZM77.9258 14.5938C78.4128 14.5938 78.7917 14.7201 79.0625 14.9727C79.3359 15.2227 79.4727 15.625 79.4727 16.1797V19H78.5547V16.3516C78.5547 16.0156 78.4857 15.7643 78.3477 15.5977C78.2096 15.4284 77.9961 15.3438 77.707 15.3438C77.2878 15.3438 76.9961 15.4727 76.832 15.7305C76.6706 15.9883 76.5898 16.362 76.5898 16.8516V19H75.6719V14.6758H76.3867L76.5156 15.2617H76.5664C76.6602 15.1107 76.776 14.987 76.9141 14.8906C77.0547 14.7917 77.2109 14.7174 77.3828 14.668C77.5573 14.6185 77.7383 14.5938 77.9258 14.5938Z" fill="white"/>
<g clip-path="url(#clip0_1637_1293)">
<path d="M33.9237 21.2323C31.1356 19.6729 26.6607 17.1689 19.7198 13.2825C19.2519 12.9734 18.7135 12.9329 18.2483 13.0904L30.1569 24.999L33.9237 21.2323Z" fill="#32BBFF"/>
<path d="M18.2482 13.0903C18.1611 13.1199 18.0762 13.1555 17.9951 13.1985C17.4814 13.4764 17.1039 14.0111 17.1039 14.6874V35.3105C17.1039 35.9868 17.4813 36.5215 17.9951 36.7993C18.0761 36.8423 18.1609 36.8781 18.248 36.9078L30.1568 24.999L18.2482 13.0903Z" fill="#32BBFF"/>
<path d="M30.1568 24.999L18.2479 36.9079C18.7133 37.0665 19.2517 37.0291 19.7198 36.7155C26.4509 32.9463 30.8754 30.472 33.6957 28.8993C33.7742 28.8552 33.8511 28.8121 33.9271 28.7694L30.1568 24.999Z" fill="#32BBFF"/>
<path d="M17.1039 24.999V35.3106C17.1039 35.9869 17.4813 36.5216 17.9951 36.7994C18.0761 36.8424 18.1609 36.8782 18.248 36.9079L30.1568 24.999H17.1039Z" fill="#2C9FD9"/>
<path d="M19.7197 13.2826C19.164 12.9156 18.5087 12.9261 17.995 13.1987L29.976 25.1798L33.9235 21.2323C31.1355 19.6729 26.6606 17.1689 19.7197 13.2826Z" fill="#29CC5E"/>
<path d="M29.9761 24.8184L17.995 36.7994C18.5087 37.072 19.164 37.0877 19.7197 36.7155C26.4509 32.9463 30.8753 30.472 33.6956 28.8993C33.7741 28.8552 33.8511 28.8121 33.9271 28.7694L29.9761 24.8184Z" fill="#D93F21"/>
<path d="M38.8962 24.9989C38.8962 24.4275 38.6079 23.8509 38.0364 23.5311C38.0364 23.5311 36.9677 22.9348 33.6919 21.1025L29.7955 24.9989L33.6957 28.8992C36.9355 27.0801 38.0364 26.4667 38.0364 26.4667C38.6079 26.147 38.8962 25.5703 38.8962 24.9989Z" fill="#FFD500"/>
<path d="M38.0364 26.4669C38.6079 26.1471 38.8962 25.5704 38.8962 24.999H29.7955L33.6957 28.8993C36.9356 27.0802 38.0364 26.4669 38.0364 26.4669Z" fill="#FFAA00"/>
</g>
<defs>
<clipPath id="clip0_1637_1293">
<rect width="24" height="24" fill="white" transform="translate(16 13)"/>
</clipPath>
</defs>
</svg>
