<svg width="1093" height="399" viewBox="0 0 1093 399" fill="none" xmlns="http://www.w3.org/2000/svg">
<g opacity="0.1">
<path d="M1083.52 81.5927C1082.22 80.7956 1080.89 80.0501 1079.69 79.1211C1077.7 77.5727 1076.91 75.7147 1078.05 73.1341C1081.39 65.616 1079.43 58.6139 1075.59 51.9216C1071.23 44.3174 1064.96 38.5312 1057.7 33.8115C1049.72 28.6274 1041.72 23.4605 1033.55 18.5975C1026.02 14.113 1017.67 11.303 1009.65 7.8106C1007.66 6.94467 1005.52 6.354 1003.96 8.48729C1002.56 10.3912 1002.98 12.5188 1004.07 14.4169C1004.79 15.6728 1005.84 16.7509 1006.81 17.9839C1006.17 18.2936 1005.69 18.6491 1005.15 18.7753C992.36 21.7401 979.922 25.9551 967.277 29.4417C953.336 33.284 939.343 36.8968 924.703 36.8681C922.248 36.8624 919.765 37.281 917.345 37.757C914.868 38.2444 914.426 39.5519 916.388 41.1576C922.845 46.4335 925.431 53.6764 927.152 61.401C927.782 64.2511 927.989 67.1414 927.461 70.1865C926.721 69.8997 926.498 69.8825 926.417 69.7678C925.993 69.137 925.557 68.512 925.219 67.841C918.498 54.4678 907.711 46.273 893.455 42.0006C876.836 37.0172 859.832 33.8918 842.789 31.0016C801.918 24.0626 761.271 16.0513 720.979 6.30239C712.899 4.3354 704.842 2.29386 695.598 0C712.153 20.7939 719.23 44.0995 721.295 69.1657C723.399 94.7079 717.47 118.501 705.794 141.589C705.031 140.207 705.398 139.547 705.559 138.842C711.282 113.156 713.364 87.3388 708.185 61.292C706.287 51.761 704.366 42.1096 698.838 33.9262C681.628 8.46435 657.651 -2.29386 627.126 1.78348C612.892 3.68738 599.301 7.95397 585.991 13.1782C561.234 22.8985 538.439 36.2316 516.562 51.222C491.398 68.4661 466.429 86.0084 439.826 101.01C439.82 101.01 439.82 101.005 439.82 101.005C439.815 101.01 439.792 101.022 439.786 101.033C439.35 101.28 438.92 101.526 438.484 101.773C438.266 101.893 438.071 102.02 437.876 102.146C435.892 103.189 433.042 104.577 432.365 105.025C401.037 125.555 370.769 147.272 339.722 168.203C316.886 183.601 293.415 197.909 268.572 209.877C258.582 214.688 248.478 219.351 237.645 221.868C206.712 229.054 175.585 229.621 144.371 223.778C122.287 219.643 101.389 211.706 80.653 203.368C66.0984 197.519 51.865 190.999 39.3405 181.29C36.1635 178.83 32.5048 177.115 28.7715 175.595C24.0519 173.674 19.1545 173.078 14.1481 173.795C1.15915 175.653 -3.62929 185.476 2.91395 196.722C3.77415 198.207 4.73184 199.652 5.79275 201C11.4529 208.18 18.5524 213.57 26.6726 217.682C38.7728 223.801 50.8672 229.937 62.973 236.05C73.9033 241.567 85.0801 246.458 96.9165 249.75C118.158 255.657 139.766 259.132 161.804 260.199C180.969 261.128 199.98 260.394 218.852 256.781C251.844 250.461 283.545 239.967 314.042 226.083C347.796 210.714 380.295 192.902 411.927 173.525C417.788 169.935 423.786 166.563 429.779 163.203C430.651 162.709 433.271 161.241 435.777 159.636C435.783 159.647 435.795 159.659 435.8 159.67C437.549 158.54 439.27 157.468 440.956 156.338C458.905 144.318 477.962 134.501 498.4 127.436C518.351 120.537 538.76 116.5 559.99 117.538C567.571 117.91 574.487 119.791 580.629 124.643C599.255 139.358 608.414 167.211 601.704 189.88C599.921 195.913 597.288 201.613 594.146 207.084C589.111 215.864 582.946 223.847 576.861 231.892C574.338 235.23 571.712 238.51 569.871 242.301C567.663 246.86 568.265 248.19 573.174 249.635C587.253 253.793 601.652 256.316 616.184 258.323C622.337 259.178 628.577 258.903 634.69 259.935C634.151 260.027 633.606 260.21 633.084 260.617C638.348 263.565 638.618 263.708 640.258 260.428C643.584 260.285 646.956 260.118 650.477 262.498C624.488 280.866 600.62 300.743 579.402 323.658C561.63 342.852 525.651 391.866 525.141 398.874C525.479 398.702 525.88 398.593 526.138 398.335C527.348 397.125 528.501 395.858 529.694 394.636C565.111 358.445 603.396 325.878 647.839 301.098C659.962 294.343 671.839 287.14 684.289 280.981C690.276 278.022 696.234 276.433 702.789 279.748C706.316 281.532 710.37 282.243 714.046 283.762C730.826 290.707 746.275 300.009 761.03 310.52C762.584 311.627 763.972 313.216 766.099 313.451C766.398 311.92 765.692 311.18 765.17 310.44C759.046 301.729 753.007 292.961 745.69 285.15C726.88 265.067 705.994 247.955 679.569 238.757C669.7 235.322 659.767 232.053 649.887 228.652C647.879 227.958 645.586 227.568 644.037 224.953C652.651 221.484 659.056 215.485 665.949 210.187C666.425 210.101 666.764 209.866 666.97 209.499C667.377 210.095 667.934 210.531 668.559 209.934C669.218 209.298 668.731 208.701 668.1 208.271C667.968 208.3 667.848 208.34 667.733 208.392C677.442 197.565 686.881 186.525 694.772 174.253C695.179 173.617 695.689 173.038 696.228 172.498C699.061 169.677 700.552 169.855 702.043 173.496C703.557 177.184 704.865 180.969 706.092 184.765C709.189 194.37 709.688 204.2 708.019 214.092C706.998 220.148 704.446 225.338 698.207 227.798C697.192 228.199 696.033 228.635 695.615 230.619C706.832 236.979 716.495 245.524 724.064 256.976C727.018 252.531 731.198 250.639 735.172 248.443C749.371 240.621 764.345 234.519 779.392 228.606C806.471 217.963 833.866 208.145 860.595 196.596C881.905 187.386 900.594 174.775 915.665 156.935C923.585 147.564 933.018 139.886 943.576 133.589C954.896 126.833 966.864 121.54 979.337 117.308C994.964 112.004 1010.72 110.025 1027.03 113.994C1040.19 117.199 1053.65 118.512 1067.19 118.576C1074.62 118.61 1081.49 116.723 1086.98 111.229C1096.21 102.002 1094.64 88.4399 1083.52 81.5927Z" fill="url(#paint0_linear_1536_452)"/>
</g>
<path d="M509.954 95.4712C510.237 92.9153 510.784 90.4055 511.335 87.899C513.23 79.2455 516.309 71.0243 520.459 63.2051C524.289 55.9878 528.921 49.3308 534.415 43.2668C539.678 37.4566 545.571 32.3909 552.008 27.9294C555.635 25.4151 559.446 23.2174 563.347 21.168C563.706 20.9794 564.106 20.8682 564.488 20.7211C564.575 20.775 564.629 20.7492 564.654 20.6526C566.688 19.4499 568.902 18.6492 571.09 17.8003C576.433 15.725 581.967 14.3629 587.635 13.5745C589.922 13.2567 592.228 13.0254 594.543 13.0198C597.535 13.0131 600.528 12.9535 603.521 13.0804C604.414 13.1186 604.423 13.104 604.427 14.0338C604.434 15.3814 604.429 16.7289 604.429 18.0765C604.429 41.7688 604.431 65.4611 604.426 89.1534C604.426 90.6009 604.7 90.593 602.984 90.5167C598.885 90.3336 594.865 90.6851 591.009 92.2865C587.019 93.9428 583.876 96.6043 581.394 100.087C578.5 104.146 576.884 108.736 575.923 113.581C575.43 116.069 575.173 118.584 574.98 121.115C574.698 124.814 574.846 128.512 574.773 132.21C574.761 132.811 574.991 133.023 575.559 132.955C575.706 132.937 575.858 132.952 576.008 132.952C586.414 132.952 596.819 132.953 607.224 132.951C608.607 132.951 608.475 133.059 608.477 131.67C608.479 123.211 608.478 114.752 608.478 106.293C608.478 105.901 608.478 105.508 608.478 104.857C609.308 105.784 609.951 106.495 610.584 107.216C619.454 117.306 628.319 127.399 637.19 137.489C646.974 148.619 656.761 159.745 666.546 170.873C667.09 171.49 667.607 172.135 668.19 172.714C668.639 173.161 668.573 173.466 668.173 173.911C666.103 176.226 664.063 178.568 662.013 180.902C654.008 190.008 646.005 199.115 637.998 208.22C633.624 213.194 629.248 218.165 624.87 223.135C624.748 223.272 624.598 223.385 624.461 223.508L624.463 223.506C623.237 225.112 621.84 226.571 620.514 228.09C616.722 232.43 612.904 236.747 609.096 241.071C608.956 241.231 608.806 241.381 608.477 241.732C608.477 241.098 608.477 240.706 608.477 240.314C608.477 230.807 608.48 221.3 608.473 211.793C608.472 210.283 608.682 210.441 607.077 210.44C596.747 210.436 586.417 210.438 576.087 210.438C575.938 210.438 575.787 210.436 575.638 210.439C574.801 210.458 574.799 210.458 574.783 211.316C574.778 211.653 574.782 211.99 574.782 212.327C574.782 236.468 574.783 260.61 574.779 284.751C574.779 286.367 575.017 286.2 573.368 286.201C552.108 286.204 530.849 286.203 509.589 286.203C509.552 286.203 509.514 286.203 509.477 286.203C507.967 286.193 508.151 286.325 508.151 284.891C508.149 250.194 508.149 215.498 508.149 180.802C508.149 180.318 508.149 179.834 508.149 179.362C507.708 179.236 507.437 179.485 507.158 179.641C505.985 180.3 504.81 180.959 503.662 181.662C497.468 185.457 491.103 188.944 484.495 191.954C478.523 194.673 472.316 196.728 465.854 197.965C462.159 198.673 458.436 198.816 454.683 198.635C450.368 198.426 446.136 197.744 441.977 196.588C439.66 195.944 437.47 194.986 435.331 193.906C432.961 192.709 430.592 191.507 428.223 190.309C426.633 189.505 425.242 188.448 424.134 187.042C423.926 186.778 423.74 186.495 423.57 186.204C422.289 184.002 423.228 182.079 425.77 181.715C426.751 181.574 427.71 181.692 428.634 182.067C429.365 182.365 430.081 182.7 430.703 183.183C433.156 185.084 435.943 186.361 438.793 187.506C442.854 189.138 446.946 190.693 451.271 191.503C457.383 192.647 463.479 192.536 469.536 191.129C471.657 190.636 473.636 189.723 475.592 188.781C480.456 186.437 485.053 183.635 489.524 180.62C495.604 176.52 501.521 172.182 507.656 168.162C508.009 167.93 508.199 167.687 508.154 167.261C508.131 167.039 508.15 166.812 508.15 166.587C508.15 150.156 508.124 133.725 508.17 117.294C508.18 113.678 508.37 110.057 508.627 106.449C508.849 103.333 509.192 100.221 509.656 97.1264C509.728 96.6481 509.832 96.1742 509.922 95.6991C509.968 95.6318 510.157 95.5812 509.954 95.4712Z" fill="#6733B5"/>
<path d="M564.653 20.6526C564.719 20.7334 564.793 20.8087 564.842 20.8985C564.853 20.9165 564.763 21.0299 564.719 21.0288C564.525 21.0254 564.511 20.8648 564.485 20.7199C564.527 20.6604 564.582 20.638 564.653 20.6526Z" fill="#6733B5"/>
<path d="M509.954 95.4712C510.058 95.451 510.161 95.4308 510.265 95.4106C510.32 95.7104 510.086 95.6655 509.919 95.7025C509.931 95.625 509.943 95.5487 509.954 95.4712Z" fill="#6733B5"/>
<path d="M547.763 198.657C546.449 198.37 545.1 198.455 543.771 198.271C540.927 197.877 538.107 197.382 535.349 196.569C534.389 196.286 534.271 196.025 534.702 195.133C535.062 194.391 535.577 193.749 536.071 193.095C537.263 191.519 538.47 189.956 539.456 188.237C540.07 187.166 540.586 186.049 540.936 184.868C542.249 180.429 540.455 174.975 536.809 172.093C535.606 171.143 534.253 170.775 532.767 170.702C528.61 170.499 524.614 171.289 520.707 172.64C516.705 174.024 512.973 175.947 509.458 178.3C509.128 178.521 508.79 178.732 508.449 178.952C508.208 178.623 508.3 178.32 508.3 178.039C508.301 174.983 508.328 171.926 508.31 168.869C508.307 168.289 508.433 167.918 508.976 167.614C514.285 164.644 519.255 161.148 524.265 157.715C528.548 154.779 533.012 152.169 537.861 150.265C540.468 149.242 543.129 148.407 545.916 148.034C551.894 147.235 556.589 149.341 559.959 154.327C561.043 155.929 561.419 157.82 561.789 159.686C562.804 164.786 562.396 169.842 561.275 174.871C561.245 175.01 561.172 175.139 561.321 175.409C563.606 170.888 564.769 166.229 564.356 161.227C563.951 156.319 562.566 151.755 559.324 147.683C561.136 148.133 562.712 148.532 564.295 148.915C572.186 150.825 580.144 152.393 588.148 153.752C591.485 154.319 594.815 154.93 598.069 155.906C600.861 156.743 602.973 158.347 604.289 160.966C604.355 161.098 604.441 161.221 604.524 161.343C604.539 161.366 604.583 161.369 604.728 161.425C604.831 160.829 604.792 160.263 604.667 159.705C604.332 158.192 603.824 156.773 602.56 155.741C602.176 155.427 602.262 155.17 602.747 155.075C603.221 154.982 603.707 154.901 604.188 154.901C607.054 154.905 609.795 154.199 612.525 153.446C615.001 152.764 617.437 151.937 619.942 151.358C620.046 151.333 620.141 151.265 620.265 151.203C620.077 150.96 619.872 150.75 619.73 150.504C619.515 150.133 619.433 149.716 619.707 149.343C620.014 148.925 620.433 149.041 620.822 149.211C622.392 149.895 624.026 150.446 625.503 151.323C627.103 152.275 628.669 153.287 630.231 154.302C631.652 155.226 632.882 156.361 633.735 157.848C634.487 159.159 634.871 160.53 634.217 162.002C633.993 162.508 634.147 162.872 634.538 163.175C634.772 163.357 635.035 163.503 635.287 163.659C637.466 165 637.774 167.655 635.968 169.466C634.894 170.541 633.548 170.912 632.094 170.904C629.442 170.892 626.807 170.635 624.228 170.007C621.036 169.23 617.95 169.617 614.89 170.656C612.446 171.485 610.104 172.521 607.887 173.844C605.82 175.077 603.972 176.581 602.422 178.416C599.47 181.909 595.812 184.379 591.638 186.182C586.404 188.444 581.039 190.366 575.737 192.45C572.79 193.608 569.858 194.804 567.077 196.335C566.298 196.764 565.481 197.135 564.902 198.006C563.42 195.762 561.528 194.09 559.331 192.845C559.412 192.455 559.64 192.371 559.839 192.292C561.062 191.809 561.561 190.794 561.76 189.608C562.086 187.671 561.988 185.745 561.383 183.865C561.144 183.122 560.886 182.381 560.59 181.659C560.298 180.947 560.006 180.911 559.451 181.463C559.346 181.568 559.246 181.682 559.166 181.807C557.589 184.259 555.697 186.46 553.755 188.622C553.725 188.747 553.648 188.821 553.522 188.845C552.171 189.882 550.918 191.057 549.231 191.736C549.534 192.247 549.984 192.325 550.377 192.46C552.312 193.126 554.256 193.766 556.189 194.439C561.364 196.24 565.454 199.59 569.137 203.524C570.57 205.053 571.752 206.77 572.952 208.476C573.054 208.621 573.192 208.766 573.133 209.066C572.717 209.021 572.445 208.71 572.14 208.492C569.25 206.434 566.224 204.612 562.939 203.252C562.218 202.953 561.425 202.815 560.735 202.466C559.451 201.818 558.285 202.128 557.112 202.708C554.674 203.914 552.349 205.324 549.975 206.647C541.271 211.499 533.774 217.877 526.839 224.964C526.605 225.203 526.379 225.451 526.143 225.688C526.093 225.738 526.014 225.759 525.948 225.793C526.048 224.421 533.093 214.822 536.573 211.065C540.728 206.577 545.403 202.685 550.491 199.088C549.762 198.595 549.066 198.66 548.378 198.687C548.16 198.857 547.956 198.873 547.763 198.657Z" fill="#F9F9F9"/>
<path d="M547.926 198.545C548.134 198.477 548.337 198.499 548.538 198.576C548.166 199.328 548.166 199.328 547.079 198.72C547.36 198.503 547.667 198.606 547.926 198.545Z" fill="#6733B5"/>
<path d="M509.417 104.143C509.387 104.191 509.35 104.326 509.283 104.344C509.105 104.39 509.049 104.249 509.047 104.1C509.045 103.986 509.113 103.9 509.23 103.898C509.348 103.897 509.411 103.978 509.417 104.143Z" fill="#6733B5"/>
<path d="M553.705 188.693C553.735 188.568 553.814 188.495 553.938 188.47C554.063 188.554 554.159 188.671 554.028 188.795C553.9 188.92 553.786 188.819 553.705 188.693Z" fill="#6733B5"/>
<path d="M624.462 223.508C624.324 223.492 624.173 223.496 624.106 223.343C624.094 223.317 624.166 223.216 624.185 223.22C624.339 223.251 624.403 223.38 624.459 223.51L624.462 223.508Z" fill="#6733B5"/>
<defs>
<linearGradient id="paint0_linear_1536_452" x1="546.5" y1="0" x2="546.5" y2="398.874" gradientUnits="userSpaceOnUse">
<stop stop-color="white"/>
<stop offset="1" stop-color="#6733B5"/>
</linearGradient>
</defs>
</svg>
