<svg width="300" height="776" viewBox="0 0 102 76" fill="none" xmlns="http://www.w3.org/2000/svg">
<circle opacity="0.2" cx="64" cy="38" r="37.5" stroke="#1F0F38"/>
<g opacity="0.9">
<path d="M64.4856 34.9605L58.8976 29.3148C58.7634 29.1795 58.6037 29.072 58.4278 28.9987C58.2518 28.9254 58.0631 28.8877 57.8725 28.8877C57.6819 28.8877 57.4931 28.9254 57.3172 28.9987C57.1412 29.072 56.9815 29.1795 56.8473 29.3148C56.5784 29.5853 56.4274 29.9513 56.4274 30.3328C56.4274 30.7142 56.5784 31.0802 56.8473 31.3507L61.9876 36.5343H4.33172C3.94877 36.5343 3.58151 36.6864 3.31073 36.9572C3.03994 37.228 2.88782 37.5953 2.88782 37.9782C2.88782 38.3612 3.03994 38.7284 3.31073 38.9992C3.58151 39.27 3.94877 39.4221 4.33172 39.4221H62.0742L56.8473 44.6346C56.712 44.7689 56.6045 44.9286 56.5312 45.1045C56.4579 45.2805 56.4202 45.4692 56.4202 45.6598C56.4202 45.8504 56.4579 46.0391 56.5312 46.2151C56.6045 46.391 56.712 46.5507 56.8473 46.685C56.9815 46.8203 57.1412 46.9277 57.3172 47.001C57.4931 47.0743 57.6819 47.1121 57.8725 47.1121C58.0631 47.1121 58.2518 47.0743 58.4278 47.001C58.6037 46.9277 58.7634 46.8203 58.8976 46.685L64.4856 41.0826C65.2967 40.2704 65.7524 39.1695 65.7524 38.0215C65.7524 36.8736 65.2967 35.7727 64.4856 34.9605Z" fill="#1F0F38"/>
</g>
</svg>
