<svg width="102" height="76" viewBox="0 0 102 76" fill="none" xmlns="http://www.w3.org/2000/svg">
<circle opacity="0.2" r="37.5" transform="matrix(-1 0 0 1 38 38)" stroke="#1F0F38"/>
<g opacity="0.9">
<path d="M37.5144 34.9605L43.1024 29.3148C43.2366 29.1795 43.3963 29.072 43.5722 28.9987C43.7482 28.9254 43.9369 28.8877 44.1275 28.8877C44.3181 28.8877 44.5069 28.9254 44.6828 28.9987C44.8588 29.072 45.0185 29.1795 45.1527 29.3148C45.4216 29.5853 45.5726 29.9513 45.5726 30.3328C45.5726 30.7142 45.4216 31.0802 45.1527 31.3507L40.0124 36.5343H97.6683C98.0512 36.5343 98.4185 36.6864 98.6893 36.9572C98.9601 37.228 99.1122 37.5953 99.1122 37.9782C99.1122 38.3612 98.9601 38.7284 98.6893 38.9992C98.4185 39.27 98.0512 39.4221 97.6683 39.4221H39.9258L45.1527 44.6346C45.288 44.7689 45.3955 44.9286 45.4688 45.1045C45.5421 45.2805 45.5798 45.4692 45.5798 45.6598C45.5798 45.8504 45.5421 46.0391 45.4688 46.2151C45.3955 46.391 45.288 46.5507 45.1527 46.685C45.0185 46.8203 44.8588 46.9277 44.6828 47.001C44.5069 47.0743 44.3181 47.1121 44.1275 47.1121C43.9369 47.1121 43.7482 47.0743 43.5722 47.001C43.3963 46.9277 43.2366 46.8203 43.1024 46.685L37.5144 41.0826C36.7033 40.2704 36.2476 39.1695 36.2476 38.0215C36.2476 36.8736 36.7033 35.7727 37.5144 34.9605Z" fill="#1F0F38"/>
</g>
</svg>
