<svg width="130" height="50" viewBox="0 0 142 52" fill="none" xmlns="http://www.w3.org/2000/svg">
<path d="M1.23181 10.6003C1.40019 10.4968 1.57379 10.3999 1.72874 10.2792C1.98802 10.0781 2.09084 9.83667 1.94183 9.50141C1.50822 8.52467 1.76303 7.61499 2.26144 6.74553C2.82768 5.75762 3.64275 5.00588 4.5867 4.39272C5.62303 3.71921 6.66162 3.04793 7.72328 2.41614C8.70226 1.83353 9.78703 1.46846 10.8286 1.01474C11.0871 0.902235 11.365 0.825497 11.5684 1.10265C11.7502 1.35 11.6958 1.62641 11.5535 1.87301C11.4596 2.03618 11.324 2.17624 11.1981 2.33642C11.2808 2.37666 11.3434 2.42285 11.4127 2.43924C13.0749 2.82442 14.6908 3.37202 16.3336 3.825C18.1448 4.32417 19.9627 4.79354 21.8648 4.78982C22.1836 4.78907 22.5062 4.84346 22.8206 4.9053C23.1425 4.96863 23.1999 5.13849 22.9451 5.3471C22.1062 6.03253 21.7701 6.97351 21.5466 7.97707C21.4647 8.34735 21.4379 8.72285 21.5064 9.11846C21.6025 9.08121 21.6316 9.07898 21.642 9.06408C21.6971 8.98212 21.7538 8.90091 21.7977 8.81374C22.6709 7.07633 24.0723 6.01167 25.9245 5.45662C28.0836 4.80919 30.2926 4.40315 32.5068 4.02765C37.8167 3.12616 43.0975 2.08535 48.3321 0.818792C49.3818 0.563245 50.4286 0.298013 51.6296 0C49.4787 2.70149 48.5593 5.72931 48.2911 8.98585C48.0177 12.3042 48.788 15.3954 50.3049 18.3949C50.404 18.2153 50.3563 18.1296 50.3355 18.038C49.5919 14.701 49.3215 11.3469 49.9942 7.96292C50.2408 6.72467 50.4904 5.47078 51.2086 4.40762C53.4445 1.09967 56.5595 -0.298013 60.5253 0.231705C62.3745 0.479056 64.1402 1.03336 65.8694 1.71209C69.0857 2.97492 72.0472 4.70712 74.8895 6.65464C78.1587 8.89495 81.4026 11.174 84.8588 13.123C84.8596 13.123 84.8596 13.1223 84.8596 13.1223C84.8603 13.123 84.8633 13.1245 84.864 13.126C84.9207 13.158 84.9765 13.1901 85.0332 13.2221C85.0615 13.2378 85.0868 13.2541 85.1121 13.2705C85.3699 13.4061 85.7402 13.5864 85.8281 13.6445C89.8982 16.3118 93.8305 19.1332 97.8641 21.8526C100.831 23.853 103.88 25.7118 107.108 27.2667C108.406 27.8918 109.718 28.4975 111.126 28.8246C115.144 29.7581 119.188 29.8319 123.244 29.0727C126.113 28.5355 128.828 27.5044 131.522 26.4211C133.413 25.6612 135.262 24.8141 136.889 23.5527C137.302 23.2331 137.777 23.0104 138.262 22.8129C138.875 22.5633 139.511 22.4859 140.162 22.579C141.849 22.8204 142.472 24.0966 141.621 25.5576C141.51 25.7506 141.385 25.9383 141.247 26.1134C140.512 27.0462 139.59 27.7465 138.535 28.2807C136.963 29.0757 135.391 29.8729 133.819 30.6671C132.399 31.3838 130.947 32.0193 129.409 32.4469C126.649 33.2143 123.842 33.6658 120.979 33.8044C118.489 33.9251 116.019 33.8297 113.567 33.3604C109.281 32.5393 105.162 31.1759 101.2 29.3722C96.8151 27.3755 92.593 25.0614 88.4834 22.544C87.722 22.0776 86.9427 21.6395 86.1641 21.2029C86.0509 21.1388 85.7104 20.9481 85.3848 20.7395C85.3841 20.741 85.3826 20.7425 85.3818 20.744C85.1546 20.5972 84.9311 20.4579 84.7121 20.3111C82.3801 18.7495 79.9044 17.474 77.2491 16.5561C74.6571 15.6599 72.0055 15.1354 69.2474 15.2702C68.2625 15.3186 67.364 15.563 66.566 16.1933C64.1462 18.1051 62.9563 21.7237 63.828 24.6688C64.0597 25.4526 64.4017 26.1931 64.81 26.9039C65.4641 28.0445 66.265 29.0816 67.0555 30.1269C67.3833 30.5605 67.7246 30.9867 67.9637 31.4791C68.2505 32.0714 68.1723 32.2443 67.5346 32.432C65.7055 32.9722 63.8347 33.3 61.9468 33.5608C61.1474 33.6718 60.3368 33.636 59.5426 33.7701C59.6126 33.782 59.6834 33.8059 59.7512 33.8588C59.0673 34.2417 59.0322 34.2604 58.8192 33.8342C58.387 33.8156 57.949 33.794 57.4915 34.1032C60.868 36.4895 63.9688 39.0718 66.7255 42.0489C69.0343 44.5426 73.7087 50.9104 73.775 51.8208C73.731 51.7984 73.6789 51.7843 73.6453 51.7508C73.4881 51.5936 73.3384 51.4289 73.1834 51.2702C68.5821 46.5683 63.6082 42.3373 57.8342 39.118C56.2592 38.2403 54.7163 37.3046 53.0988 36.5044C52.321 36.12 51.5469 35.9136 50.6953 36.3442C50.2371 36.5759 49.7104 36.6683 49.2328 36.8657C47.0528 37.768 45.0457 38.9764 43.1288 40.3421C42.9269 40.4859 42.7466 40.6922 42.4702 40.7228C42.4314 40.5239 42.523 40.4277 42.5908 40.3316C43.3865 39.1999 44.1711 38.0608 45.1217 37.046C47.5654 34.4369 50.2788 32.2137 53.712 31.0187C54.9942 30.5724 56.2846 30.1478 57.5683 29.706C57.829 29.6158 58.127 29.5652 58.3282 29.2254C57.2091 28.7747 56.3769 27.9954 55.4814 27.307C55.4196 27.2958 55.3756 27.2652 55.3488 27.2176C55.2959 27.295 55.2236 27.3517 55.1424 27.2742C55.0567 27.1915 55.1201 27.114 55.202 27.0581C55.2192 27.0618 55.2348 27.0671 55.2497 27.0738C53.9884 25.6671 52.762 24.233 51.7369 22.6386C51.684 22.5559 51.6177 22.4806 51.5476 22.4106C51.1796 22.044 50.9859 22.0671 50.7922 22.5402C50.5955 23.0193 50.4256 23.511 50.2662 24.0042C49.8639 25.2522 49.799 26.5291 50.0159 27.8143C50.1485 28.6011 50.48 29.2753 51.2906 29.595C51.4225 29.6471 51.573 29.7037 51.6274 29.9615C50.1701 30.7878 48.9147 31.8979 47.9313 33.3857C47.5476 32.8083 47.0044 32.5624 46.4881 32.2771C44.6434 31.2609 42.6981 30.4681 40.7432 29.7C37.2251 28.3172 33.6661 27.0417 30.1935 25.5412C27.4249 24.3447 24.9969 22.7064 23.0389 20.3886C22.01 19.1712 20.7845 18.1736 19.4129 17.3556C17.9422 16.4779 16.3873 15.7902 14.7668 15.2404C12.7366 14.5512 10.6893 14.2942 8.57114 14.8098C6.86053 15.2262 5.11195 15.3969 3.35292 15.4051C2.38811 15.4095 1.49481 15.1644 0.782562 14.4507C-0.417694 13.2519 -0.213547 11.4899 1.23181 10.6003Z" fill="url(#paint0_linear_1888_534)"/>
<defs>
<linearGradient id="paint0_linear_1888_534" x1="71" y1="0" x2="71" y2="51.8208" gradientUnits="userSpaceOnUse">
<stop stop-color="#8E5ED6"/>
<stop offset="1" stop-color="#6733B5"/>
</linearGradient>
</defs>
</svg>
