<svg width="130" height="50" viewBox="0 0 142 52" fill="none" xmlns="http://www.w3.org/2000/svg">
<path d="M140.768 10.6003C140.6 10.4968 140.426 10.3999 140.271 10.2792C140.012 10.0781 139.909 9.83667 140.058 9.50141C140.492 8.52467 140.237 7.61499 139.739 6.74553C139.172 5.75762 138.357 5.00588 137.413 4.39272C136.377 3.71921 135.338 3.04793 134.277 2.41614C133.298 1.83353 132.213 1.46846 131.171 1.01474C130.913 0.902235 130.635 0.825497 130.432 1.10265C130.25 1.35 130.304 1.62641 130.446 1.87301C130.54 2.03618 130.676 2.17624 130.802 2.33642C130.719 2.37666 130.657 2.42285 130.587 2.43924C128.925 2.82442 127.309 3.37202 125.666 3.825C123.855 4.32417 122.037 4.79354 120.135 4.78982C119.816 4.78907 119.494 4.84346 119.179 4.9053C118.858 4.96863 118.8 5.13849 119.055 5.3471C119.894 6.03253 120.23 6.97351 120.453 7.97707C120.535 8.34735 120.562 8.72285 120.494 9.11846C120.397 9.08121 120.368 9.07898 120.358 9.06408C120.303 8.98212 120.246 8.90091 120.202 8.81374C119.329 7.07633 117.928 6.01167 116.076 5.45662C113.916 4.80919 111.707 4.40315 109.493 4.02765C104.183 3.12616 98.9025 2.08535 93.6679 0.818792C92.6182 0.563245 91.5714 0.298013 90.3704 0C92.5213 2.70149 93.4407 5.72931 93.7089 8.98585C93.9823 12.3042 93.212 15.3954 91.6951 18.3949C91.596 18.2153 91.6437 18.1296 91.6645 18.038C92.4081 14.701 92.6785 11.3469 92.0058 7.96292C91.7592 6.72467 91.5096 5.47078 90.7914 4.40762C88.5555 1.09967 85.4405 -0.298013 81.4747 0.231705C79.6255 0.479056 77.8598 1.03336 76.1306 1.71209C72.9143 2.97492 69.9528 4.70712 67.1105 6.65464C63.8413 8.89495 60.5974 11.174 57.1412 13.123C57.1404 13.123 57.1404 13.1223 57.1404 13.1223C57.1397 13.123 57.1367 13.1245 57.136 13.126C57.0793 13.158 57.0235 13.1901 56.9668 13.2221C56.9385 13.2378 56.9132 13.2541 56.8879 13.2705C56.6301 13.4061 56.2598 13.5864 56.1719 13.6445C52.1018 16.3118 48.1695 19.1332 44.1359 21.8526C41.1691 23.853 38.1197 25.7118 34.8922 27.2667C33.5944 27.8918 32.2816 28.4975 30.8743 28.8246C26.8556 29.7581 22.8115 29.8319 18.7563 29.0727C15.8872 28.5355 13.1723 27.5044 10.4782 26.4211C8.58735 25.6612 6.73818 24.8141 5.11103 23.5527C4.69828 23.2331 4.22295 23.0104 3.73793 22.8129C3.12477 22.5633 2.48851 22.4859 1.83809 22.579C0.150594 22.8204 -0.471509 24.0966 0.378574 25.5576C0.490329 25.7506 0.61475 25.9383 0.752581 26.1134C1.48793 27.0462 2.41028 27.7465 3.46525 28.2807C5.03727 29.0757 6.60854 29.8729 8.18131 30.6671C9.60134 31.3838 11.0534 32.0193 12.5912 32.4469C15.3508 33.2143 18.158 33.6658 21.0212 33.8044C23.5111 33.9251 25.9809 33.8297 28.4328 33.3604C32.719 32.5393 36.8375 31.1759 40.7996 29.3722C45.1849 27.3755 49.407 25.0614 53.5166 22.544C54.278 22.0776 55.0573 21.6395 55.8359 21.2029C55.9491 21.1388 56.2896 20.9481 56.6152 20.7395C56.6159 20.741 56.6174 20.7425 56.6182 20.744C56.8454 20.5972 57.0689 20.4579 57.2879 20.3111C59.6199 18.7495 62.0956 17.474 64.7509 16.5561C67.3429 15.6599 69.9945 15.1354 72.7526 15.2702C73.7375 15.3186 74.636 15.563 75.434 16.1933C77.8538 18.1051 79.0437 21.7237 78.172 24.6688C77.9403 25.4526 77.5983 26.1931 77.19 26.9039C76.5359 28.0445 75.735 29.0816 74.9445 30.1269C74.6167 30.5605 74.2754 30.9867 74.0363 31.4791C73.7495 32.0714 73.8277 32.2443 74.4654 32.432C76.2945 32.9722 78.1653 33.3 80.0532 33.5608C80.8526 33.6718 81.6632 33.636 82.4574 33.7701C82.3874 33.782 82.3166 33.8059 82.2488 33.8588C82.9327 34.2417 82.9678 34.2604 83.1808 33.8342C83.613 33.8156 84.051 33.794 84.5085 34.1032C81.132 36.4895 78.0312 39.0718 75.2745 42.0489C72.9657 44.5426 68.2913 50.9104 68.225 51.8208C68.269 51.7984 68.3211 51.7843 68.3547 51.7508C68.5119 51.5936 68.6616 51.4289 68.8166 51.2702C73.4179 46.5683 78.3918 42.3373 84.1658 39.118C85.7408 38.2403 87.2837 37.3046 88.9012 36.5044C89.679 36.12 90.4531 35.9136 91.3047 36.3442C91.7629 36.5759 92.2896 36.6683 92.7672 36.8657C94.9472 37.768 96.9543 38.9764 98.8712 40.3421C99.0731 40.4859 99.2534 40.6922 99.5298 40.7228C99.5686 40.5239 99.477 40.4277 99.4092 40.3316C98.6135 39.1999 97.8289 38.0608 96.8783 37.046C94.4346 34.4369 91.7212 32.2137 88.288 31.0187C87.0058 30.5724 85.7154 30.1478 84.4317 29.706C84.171 29.6158 83.873 29.5652 83.6718 29.2254C84.7909 28.7747 85.6231 27.9954 86.5186 27.307C86.5804 27.2958 86.6244 27.2652 86.6512 27.2176C86.7041 27.295 86.7764 27.3517 86.8576 27.2742C86.9433 27.1915 86.8799 27.114 86.798 27.0581C86.7808 27.0618 86.7652 27.0671 86.7503 27.0738C88.0116 25.6671 89.238 24.233 90.2631 22.6386C90.316 22.5559 90.3823 22.4806 90.4524 22.4106C90.8204 22.044 91.0141 22.0671 91.2078 22.5402C91.4045 23.0193 91.5744 23.511 91.7338 24.0042C92.1361 25.2522 92.201 26.5291 91.9841 27.8143C91.8515 28.6011 91.52 29.2753 90.7094 29.595C90.5775 29.6471 90.427 29.7037 90.3726 29.9615C91.8299 30.7878 93.0853 31.8979 94.0687 33.3857C94.4524 32.8083 94.9956 32.5624 95.5119 32.2771C97.3566 31.2609 99.3019 30.4681 101.257 29.7C104.775 28.3172 108.334 27.0417 111.807 25.5412C114.575 24.3447 117.003 22.7064 118.961 20.3886C119.99 19.1712 121.216 18.1736 122.587 17.3556C124.058 16.4779 125.613 15.7902 127.233 15.2404C129.263 14.5512 131.311 14.2942 133.429 14.8098C135.139 15.2262 136.888 15.3969 138.647 15.4051C139.612 15.4095 140.505 15.1644 141.217 14.4507C142.418 13.2519 142.214 11.4899 140.768 10.6003Z" fill="url(#paint0_linear_1634_410)"/>
<defs>
<linearGradient id="paint0_linear_1634_410" x1="71" y1="0" x2="71" y2="51.8208" gradientUnits="userSpaceOnUse">
<stop stop-color="#8E5ED6"/>
<stop offset="1" stop-color="#6733B5"/>
</linearGradient>
</defs>
</svg>
